<?xml version="1.0" encoding="UTF-8" standalone="no"?>
<!-- Created with Inkscape (http://www.inkscape.org/) -->

<svg
   width="80mm"
   height="80mm"
   viewBox="0 0 80 80"
   version="1.1"
   id="svg1"
   inkscape:version="1.3 (0e150ed6c4, 2023-07-21)"
   sodipodi:docname="chinese.svg"
   xmlns:inkscape="http://www.inkscape.org/namespaces/inkscape"
   xmlns:sodipodi="http://sodipodi.sourceforge.net/DTD/sodipodi-0.dtd"
   xmlns="http://www.w3.org/2000/svg"
   xmlns:svg="http://www.w3.org/2000/svg">
  <sodipodi:namedview
     id="namedview1"
     pagecolor="#ffffff"
     bordercolor="#666666"
     borderopacity="1.0"
     inkscape:showpageshadow="2"
     inkscape:pageopacity="0.0"
     inkscape:pagecheckerboard="0"
     inkscape:deskcolor="#d1d1d1"
     inkscape:document-units="mm"
     inkscape:zoom="0.94773143"
     inkscape:cx="20.047874"
     inkscape:cy="120.28724"
     inkscape:window-width="1364"
     inkscape:window-height="750"
     inkscape:window-x="0"
     inkscape:window-y="16"
     inkscape:window-maximized="1"
     inkscape:current-layer="layer1" />
  <defs
     id="defs1">
    <rect
       x="99.541374"
       y="130.67198"
       width="674.1001"
       height="296.90283"
       id="rect2" />
  </defs>
  <g
     inkscape:label="Layer 1"
     inkscape:groupmode="layer"
     id="layer1"
     transform="translate(-68.491725,-38.68437)">
    <text
       xml:space="preserve"
       style="font-size:10.5495px;line-height:1.25;font-family:'Noto Sans CJK TC';-inkscape-font-specification:'Noto Sans CJK TC';stroke-width:0.263737"
       x="48.953457"
       y="83.913376"
       id="text1"><tspan
         sodipodi:role="line"
         id="tspan1"
         style="stroke-width:0.263737"
         x="48.953457"
         y="83.913376" /></text>
    <path
       style="font-weight:600;font-size:40px;line-height:1.25;font-family:'Noto Serif CJK TC';-inkscape-font-specification:'Noto Serif CJK TC Semi-Bold';writing-mode:tb-rl;white-space:pre;stroke-width:0.263737"
       d="m 137.02608,42.096617 -0.10549,0.07384 c 0.42198,0.390331 0.8756,1.0444 0.99165,1.603524 0.96,0.643519 1.71956,-1.265939 -0.88616,-1.67737 z m 3.60793,-0.116045 -0.10549,0.07384 c 0.32703,0.369232 0.67516,0.991653 0.72791,1.519127 0.8756,0.664618 1.76177,-1.065498 -0.62242,-1.592974 z m -3.48134,4.705076 c -0.14769,0.04219 -0.30592,0.116043 -0.40087,0.18989 l 0.79121,0.611871 0.32703,-0.305936 h 0.85451 c -0.34813,1.519127 -1.14989,3.185948 -2.31034,4.272546 l 0.11604,0.126593 c 0.78067,-0.474727 1.41364,-1.086597 1.92001,-1.751215 0.79121,1.297588 1.93056,1.614072 3.97716,1.614072 0.75957,0 2.55298,0 3.2598,0 0.0211,-0.379781 0.18989,-0.696266 0.54857,-0.780663 v -0.137143 c -0.8967,0.0211 -2.93275,0.0211 -3.78726,0.0211 -1.90947,0 -3.05936,-0.116045 -3.82948,-0.938906 0.51693,-0.738464 0.88616,-1.540226 1.1288,-2.320888 0.24264,-0.01055 0.33759,-0.04219 0.41143,-0.137144 l -0.9389,-0.822861 -0.53803,0.548574 h -0.69627 c 0.36924,-0.580222 0.87561,-1.403083 1.16045,-1.920008 0.25319,0 0.46418,-0.05275 0.55913,-0.158242 l -0.92837,-0.83341 -0.46417,0.474727 h -1.83561 l 0.095,0.305935 h 1.71956 c -0.29538,0.569673 -0.77011,1.403083 -1.13935,1.941108 z m 7.85937,-3.713423 -0.58021,0.759563 h -1.07605 c 0.46418,-0.41143 0.93891,-0.917806 1.24484,-1.297588 0.23209,0 0.35868,-0.0844 0.39033,-0.20044 l -1.40309,-0.358682 c -0.12659,0.538024 -0.34812,1.287038 -0.56966,1.85671 h -3.3864 l 0.0844,0.305936 h 2.2154 c -0.0106,0.305936 -0.0317,0.696267 -0.0633,1.012751 h -0.49583 l -1.0022,-0.432529 v 5.485738 h 0.14769 c 0.40088,0 0.80177,-0.22154 0.80177,-0.327035 v -0.295386 h 2.84836 v 0.538025 h 0.15824 c 0.31649,0 0.79122,-0.20044 0.80176,-0.274288 v -4.240897 c 0.20044,-0.04219 0.34814,-0.116043 0.42199,-0.20044 l -1.01276,-0.770112 -0.47472,0.516924 h -1.66682 c 0.23208,-0.305935 0.47472,-0.696266 0.66461,-1.012751 h 2.73232 c 0.1477,0 0.25319,-0.05275 0.28484,-0.168792 -0.40088,-0.379781 -1.06551,-0.896707 -1.06551,-0.896707 z m -3.69231,6.203103 V 48.08873 h 2.84836 v 1.086598 z m 0,-1.392534 v -1.076048 h 2.84836 v 1.076048 z m 0,-1.381983 v -1.0444 h 2.84836 v 1.0444 z m -3.99827,6.2664 -0.0949,0.0844 c 0.44309,0.358684 0.9811,0.981103 1.16044,1.519128 1.00221,0.559123 1.61408,-1.381983 -1.0655,-1.603523 z m -0.85451,2.341988 -0.095,0.09495 c 0.44309,0.327034 0.93891,0.896707 1.09715,1.413632 0.97056,0.569673 1.59298,-1.318686 -1.00221,-1.508577 z m 0.66462,4.261995 c -0.11604,0 -0.46417,0 -0.46417,0 v 0.210991 c 0.22154,0.0211 0.37978,0.0633 0.51692,0.158242 0.24264,0.158242 0.2954,1.065499 0.11605,2.141548 0.0633,0.358682 0.26373,0.527474 0.48527,0.527474 0.45363,0 0.74902,-0.316485 0.75957,-0.812311 0.0422,-0.896707 -0.33759,-1.297588 -0.35868,-1.825063 0,-0.263737 0.0633,-0.61187 0.14769,-0.949454 0.1266,-0.516925 0.86506,-2.848364 1.25539,-4.093204 l -0.17935,-0.04219 c -1.7723,4.082654 -1.7723,4.082654 -1.9833,4.462436 -0.11604,0.21099 -0.15824,0.221539 -0.29539,0.221539 z m 2.72178,-4.652327 v 4.905515 h 0.13714 c 0.41143,0 0.82286,-0.221539 0.82286,-0.316485 v -0.759563 h 1.54023 V 62.2989 h 0.18988 c 0.36924,0 0.78067,-0.232089 0.78067,-0.369233 v -3.481333 h 1.54023 v 0.928356 h 0.16879 c 0.31648,0 0.80176,-0.200441 0.81231,-0.274287 v -4.008809 c 0.22154,-0.04219 0.36924,-0.137143 0.44308,-0.221539 l -1.03385,-0.791212 -0.49582,0.538024 h -1.43474 v -1.540226 c 0.33759,-0.05275 0.43253,-0.179341 0.47473,-0.358683 l -1.44528,-0.147692 v 2.046601 h -1.47693 l -1.0233,-0.432529 z m 2.50023,3.534081 h -1.54023 v -3.238694 h 1.54023 z m 0.97055,0 v -3.238694 h 1.54023 v 3.238694 z m 1.69847,5.232549 -0.66462,0.822861 h -7.89103 l 0.0844,0.305936 h 4.01936 c -0.0633,0.538024 -0.15824,1.213191 -0.24264,1.677369 h -2.01495 l -1.07605,-0.453628 v 7.09981 h 0.15825 c 0.42197,0 0.82286,-0.232089 0.82286,-0.348133 v -5.992114 h 1.40308 v 6.013212 h 0.15824 c 0.48527,0 0.77011,-0.20044 0.78066,-0.253188 v -5.760024 h 1.43473 v 5.84442 h 0.16879 c 0.47473,0 0.77012,-0.20044 0.77012,-0.253187 v -5.591233 h 1.46638 v 4.947714 c 0,0.137143 -0.0422,0.20044 -0.20044,0.20044 -0.20044,0 -0.91781,-0.05275 -0.91781,-0.05275 v 0.158242 c 0.37979,0.05275 0.56968,0.179342 0.69627,0.337585 0.10549,0.168791 0.14769,0.432529 0.16879,0.759563 1.09715,-0.105494 1.23429,-0.548573 1.23429,-1.276488 v -4.905515 c 0.22154,-0.03165 0.37978,-0.126594 0.45363,-0.210991 l -1.0655,-0.81231 -0.47472,0.548573 h -3.61848 c 0.39033,-0.453628 0.84395,-1.107697 1.20263,-1.677369 h 4.05101 c 0.15824,0 0.26374,-0.05275 0.28485,-0.168792 -0.44309,-0.400881 -1.1921,-0.960005 -1.1921,-0.960005 z m -6.3086,13.78819 h 2.1521 v 2.225944 h -2.23649 c 0.0739,-0.601322 0.0844,-1.192094 0.0844,-1.761766 z m 0,-0.305935 v -2.162646 h 2.1521 v 2.162646 z m -1.0022,-2.468582 v 3.249245 c 0,2.004403 -0.11605,4.019357 -1.29759,5.601782 l 0.13714,0.09495 c 1.31869,-0.991653 1.83562,-2.310339 2.03605,-3.639576 h 2.2787 v 3.576279 h 0.16879 c 0.51692,0 0.82286,-0.221539 0.82286,-0.295387 v -3.280892 h 2.37364 v 2.257592 c 0,0.147693 -0.0527,0.232088 -0.25319,0.232088 -0.21099,0 -1.28704,-0.0844 -1.28704,-0.0844 v 0.158243 c 0.50637,0.07384 0.74902,0.18989 0.91781,0.337583 0.14769,0.158242 0.20044,0.400881 0.23209,0.717366 1.24484,-0.116045 1.39252,-0.538025 1.39252,-1.255391 v -7.152561 c 0.24265,-0.05275 0.41144,-0.147692 0.48529,-0.242638 l -1.1077,-0.865059 -0.49583,0.590772 h -5.2431 l -1.16044,-0.43253 z m 6.51959,2.774517 v 2.225944 h -2.37364 v -2.225944 z m 0,-0.305935 h -2.37364 v -2.162646 h 2.37364 z m -4.44135,7.300251 -0.10549,0.07384 c 0.50638,0.516925 1.0444,1.339785 1.16045,2.057151 1.0444,0.749015 1.89891,-1.413632 -1.05496,-2.130997 z m -1.32922,7.226403 c -0.26375,0 -1.39255,0.822861 -2.1099,1.234291 l 0.8123,1.192092 c 0.0739,-0.05275 0.12659,-0.137143 0.0844,-0.242637 0.34813,-0.569673 0.87561,-1.318687 1.0866,-1.666821 0.11604,-0.179341 0.23209,-0.210989 0.36923,-0.01055 0.8967,1.297588 1.80396,1.730117 3.94551,1.730117 0.98111,0 2.05716,0 2.82727,0 0.0527,-0.474728 0.31648,-0.886158 0.78066,-0.981104 v -0.126593 c -1.16045,0.0633 -2.07825,0.0633 -3.22814,0.0633 -2.14155,0 -3.31255,-0.189891 -4.16706,-1.044399 l -0.0422,-0.03165 c 2.54242,-0.970554 4.75782,-2.574077 6.06596,-4.304194 0.27428,-0.01055 0.39033,-0.04219 0.47472,-0.147693 l -0.99165,-0.917806 -0.66462,0.580222 h -6.76222 l 0.0949,0.305935 h 6.60398 c -1.09715,1.603524 -3.14374,3.291443 -5.11649,4.367491 z m -2.04661,11.129694 0.61187,1.11824 c 0.11605,-0.0317 0.21099,-0.12659 0.26373,-0.25318 2.03606,-0.65407 3.4286,-1.171 4.42025,-1.55078 l -0.0316,-0.15824 c -2.2154,0.39034 -4.34639,0.73847 -5.2642,0.84396 z m 3.54463,-2.04659 h -1.64572 v -1.951639 h 1.64572 z m -1.64572,0.82286 v -0.51692 h 1.64572 v 0.56967 h 0.15825 c 0.31648,0 0.78066,-0.211 0.79121,-0.28484 v -2.426379 c 0.16879,-0.0317 0.30593,-0.11603 0.36922,-0.17933 l -0.96,-0.727919 -0.45362,0.485279 h -1.50858 l -0.97056,-0.411432 v 3.787251 h 0.1266 c 0.40088,0 0.80176,-0.21099 0.80176,-0.29538 z m 4.80003,-6.42463 -1.40309,-0.158243 c 0,0.706816 0.0106,1.381983 0.0316,2.036052 h -5.27475 l 0.0844,0.305936 h 5.2009 c 0.0844,1.803953 0.30594,3.386375 0.83342,4.641755 -0.85451,1.05495 -1.97276,1.97275 -3.41804,2.62683 l 0.0844,0.13714 c 1.52967,-0.47473 2.73232,-1.20265 3.68177,-2.0677 0.41143,0.70681 0.94946,1.27648 1.67737,1.69847 0.54857,0.31648 1.26594,0.60132 1.58242,0.15824 0.11605,-0.15824 0.0739,-0.37978 -0.28483,-0.83341 l 0.17933,-1.66682 -0.12659,-0.0317 c -0.14769,0.46417 -0.39033,1.0233 -0.54857,1.30814 -0.095,0.17934 -0.16879,0.18989 -0.35868,0.0739 -0.61188,-0.33758 -1.07605,-0.83341 -1.41364,-1.45583 0.81232,-0.94944 1.37143,-2.014935 1.75123,-3.090969 0.28483,0.0106 0.37977,-0.0527 0.43252,-0.17935 l -1.37143,-0.443078 c -0.25319,0.959995 -0.64352,1.919999 -1.1921,2.806157 -0.33759,-1.023305 -0.47473,-2.289239 -0.51692,-3.681765 h 3.25979 c 0.14769,0 0.25319,-0.05275 0.28484,-0.168792 -0.35869,-0.316485 -0.90726,-0.738465 -1.07605,-0.865059 0.11604,-0.400881 -0.29539,-1.033851 -1.77231,-1.033851 l -0.0844,0.09495 c 0.41143,0.253188 0.92835,0.759564 1.09715,1.202642 0.13714,0.07384 0.27429,0.0844 0.37978,0.0633 l -0.32704,0.400881 h -1.77232 c -0.0106,-0.516924 -0.0106,-1.0444 0,-1.592973 0.27429,-0.03165 0.36924,-0.158242 0.3798,-0.284836 z m -0.84397,13.81982 -0.095,0.10549 c 1.0655,0.67516 2.48968,1.85671 3.05934,2.80617 1.2343,0.52746 1.52969,-1.89891 -2.9644,-2.91166 z m -5.73893,-2.42639 0.0844,0.30594 h 4.74727 c -0.85451,1.8778 -2.8378,3.93496 -4.96881,5.25365 l 0.0844,0.12659 c 1.60352,-0.70682 3.1121,-1.70902 4.3253,-2.88001 v 5.96046 h 0.20043 c 0.36923,0 0.81231,-0.18989 0.83341,-0.25319 v -6.25585 c 0.18989,-0.0316 0.28484,-0.10549 0.32703,-0.20044 l -0.48527,-0.17934 c 0.42197,-0.50638 0.80177,-1.03385 1.10769,-1.57187 h 3.08045 c 0.15825,0 0.27429,-0.0527 0.2954,-0.1688 -0.46419,-0.41143 -1.22375,-0.99165 -1.22375,-0.99165 l -0.68572,0.85451 z M 129.1878,44.174867 c -0.10549,0.03165 -0.21098,0.07384 -0.29538,0.126594 l -0.59078,-0.506376 -0.48527,0.485278 h -1.38198 c 0.14769,-0.43253 0.25319,-0.896708 0.33758,-1.371435 h 2.93276 c -0.14769,0.379782 -0.34813,0.896707 -0.51693,1.265939 z m 3.06991,6.118708 -0.44308,0.685716 h -0.14769 v -2.510779 c 0.15824,-0.03165 0.27429,-0.09495 0.31648,-0.158243 l -0.92836,-0.706815 -0.46417,0.474727 h -4.94771 l -1.09715,-0.43253 v 3.33364 h -1.26594 l 0.0949,0.305936 h 9.4207 c 0.13714,0 0.23209,-0.05275 0.25318,-0.168792 -0.27428,-0.337584 -0.79121,-0.82286 -0.79121,-0.82286 z m -1.58243,-1.909459 v 2.595175 h -1.10769 v -2.595175 z m -4.45188,-3.185947 -0.1055,0.105494 c 0.34814,0.210991 0.73847,0.495827 1.09715,0.822861 -0.39033,0.590772 -0.93891,1.086598 -1.68792,1.45583 l 0.0739,0.147694 c 0.87561,-0.274288 1.54023,-0.675169 2.0466,-1.170994 0.25319,0.274286 0.45363,0.548573 0.56968,0.801761 0.66461,0.337584 1.00219,-0.580222 -0.0739,-1.381984 0.27428,-0.390331 0.48528,-0.83341 0.63297,-1.308137 0.11604,-0.01055 0.20044,-0.0211 0.26374,-0.04219 l 0.61186,0.453628 0.41143,-0.43253 h 1.35034 c -0.0844,1.097148 -0.23208,1.793415 -0.41143,1.951657 -0.0633,0.0633 -0.12659,0.07384 -0.24264,0.07384 -0.17933,0 -0.82286,-0.04219 -1.20264,-0.07384 l -0.0106,0.158243 c 0.37978,0.0633 0.74902,0.20044 0.88616,0.337584 0.1477,0.126594 0.20044,0.327034 0.18989,0.548573 0.15824,0 0.29539,-0.0211 0.43253,-0.04219 0.22154,-0.03165 0.41143,-0.105496 0.55912,-0.210991 0.43253,-0.327034 0.62242,-1.170994 0.74902,-2.605725 0.20044,-0.0211 0.32704,-0.0844 0.40088,-0.168792 l -0.92835,-0.759564 -0.50639,0.485278 h -1.21319 c 0.17935,-0.390332 0.40089,-0.907257 0.53803,-1.244841 0.23209,-0.03165 0.42199,-0.09495 0.50637,-0.189891 l -1.01275,-0.812311 -0.44308,0.506376 h -6.15032 l 0.0949,0.305935 h 2.03605 c -0.22154,1.941107 -0.92836,3.723972 -2.50023,5.02156 l 0.0844,0.126594 c 1.56132,-0.822861 2.51077,-2.025504 3.05935,-3.470785 h 1.52968 c -0.0844,0.358684 -0.20045,0.706817 -0.35869,1.023302 -0.33758,-0.158242 -0.75957,-0.295386 -1.27649,-0.41143 z m -0.71737,3.185947 h 1.1499 v 2.595175 h -1.1499 z m 3.1543,0 v 2.595175 h -1.09715 v -2.595175 z m -4.91607,10.707738 c -0.11604,0 -0.47471,0 -0.47471,0 v 0.221539 c 0.22153,0.0211 0.39032,0.05275 0.53801,0.158242 0.24264,0.158243 0.29539,1.076049 0.11605,2.183746 0.0527,0.369231 0.24264,0.538024 0.46418,0.538024 0.43253,0 0.72791,-0.327035 0.73846,-0.822861 0.0422,-0.907256 -0.32703,-1.339786 -0.34813,-1.86726 0,-0.253188 0.0633,-0.611872 0.15824,-0.960005 0.13715,-0.538024 0.93891,-2.953858 1.36088,-4.251446 l -0.17934,-0.05275 c -1.87781,4.261996 -1.87781,4.261996 -2.08879,4.631229 -0.1055,0.22154 -0.1477,0.22154 -0.28485,0.22154 z m -0.55911,-4.051007 -0.0949,0.07384 c 0.36924,0.327034 0.79121,0.875608 0.90725,1.360884 0.92836,0.601322 1.67738,-1.181543 -0.8123,-1.43473 z m 0.72791,-2.352538 -0.0844,0.0844 c 0.37978,0.337584 0.83341,0.907257 0.97056,1.434731 0.94945,0.632969 1.71956,-1.202643 -0.88616,-1.519128 z m 8.89323,0.295387 -1.22375,-0.137144 v 2.647923 h -0.81231 v -2.542427 c 0.30594,-0.04219 0.40088,-0.126594 0.43253,-0.253188 l -1.1921,-0.147694 v 2.848364 c -0.14768,0.07384 -0.29538,0.168792 -0.39033,0.263737 l 0.92837,0.538024 0.30593,-0.40088 h 0.72791 v 1.139346 h -4.13539 v -1.202643 h 0.86505 v 0.548574 h 0.14769 c 0.27429,0 0.61187,-0.158243 0.61187,-0.242639 v -3.12265 c 0.20044,-0.03165 0.28484,-0.116045 0.29539,-0.23209 l -1.05495,-0.116043 v 2.858912 h -0.86505 v -2.183745 c 0.26373,-0.03165 0.34812,-0.137143 0.36922,-0.284836 l -1.24484,-0.126594 v 4.610129 c 0,1.920008 -0.23209,3.53408 -1.20264,4.831668 l 0.14769,0.105496 c 1.20264,-0.949455 1.69847,-2.236493 1.86727,-3.734521 h 0.84395 v 3.396937 h 0.11605 c 0.25319,0 0.62242,-0.168792 0.63297,-0.232089 v -3.059354 c 0.18989,-0.04219 0.33758,-0.116044 0.40087,-0.189891 l -0.85451,-0.643518 -0.39032,0.421979 h -0.72792 c 0.0317,-0.295385 0.0422,-0.590772 0.0422,-0.896707 v -0.200441 h 4.13539 v 1.097148 h -0.83341 l -0.88615,-0.369233 v 4.061557 h 0.12659 c 0.39033,0 0.63297,-0.189891 0.63297,-0.253188 v -3.1332 h 0.96 V 62.2989 h 0.17935 c 0.31648,0 0.70681,-0.232089 0.70681,-0.348134 v -8.703333 c 0.24264,-0.04219 0.31648,-0.137143 0.33759,-0.263737 z m -5.53849,10.887079 -1.36088,-0.569673 c -0.42199,1.392533 -1.39254,3.238695 -2.67958,4.399138 l 0.0949,0.116045 c 1.68792,-0.928355 2.88001,-2.50023 3.53408,-3.797818 0.26373,0.0211 0.35868,-0.04219 0.41143,-0.147692 z m 2.57407,1.930557 -0.58021,0.780662 h -4.05101 l 0.0844,0.305936 h 1.37144 c -0.1477,0.474727 -0.41143,1.213192 -0.62242,1.740667 -0.17934,0.05275 -0.35868,0.137143 -0.48528,0.221539 l 0.98111,0.717365 0.47472,-0.527474 h 3.08045 c -0.17934,1.329236 -0.49582,2.373636 -0.82286,2.605725 -0.12659,0.0844 -0.23208,0.105494 -0.44308,0.105494 -0.25319,0 -1.20264,-0.0633 -1.77231,-0.116043 v 0.147692 c 0.50637,0.0844 1.01275,0.242639 1.2132,0.400881 0.18988,0.147693 0.24263,0.390331 0.24263,0.664618 0.60132,0 1.03385,-0.116045 1.38198,-0.358682 0.56968,-0.400881 0.99165,-1.656272 1.20265,-3.301993 0.22154,-0.0211 0.35868,-0.07384 0.43252,-0.158242 l -0.97055,-0.822861 -0.53802,0.527475 h -2.98551 c 0.22154,-0.559123 0.50637,-1.329236 0.68572,-1.846161 h 2.88001 c 0.13714,0 0.25319,-0.05275 0.27429,-0.168793 -0.37978,-0.379781 -1.03386,-0.917805 -1.03386,-0.917805 z m -0.31648,-2.225944 h -1.58242 l 0.0949,0.305936 h 1.74067 c 0.35868,1.603523 1.21319,2.90111 2.54242,3.734521 0.1055,-0.379782 0.44309,-0.749014 0.85451,-0.875608 l 0.0106,-0.126594 c -1.52969,-0.495827 -2.67958,-1.550776 -3.1332,-2.690121 0.36922,-0.0211 0.67516,-0.09495 0.80176,-0.242638 l -0.98111,-0.664618 z m -0.93891,11.69939 -0.12659,0.05275 c 0.36923,0.654069 0.80177,1.603524 0.87561,2.373637 0.90726,0.812311 1.80396,-1.107697 -0.74902,-2.426384 z m -2.75341,5.707277 0.56968,1.170994 c 0.11603,-0.0422 0.21098,-0.158243 0.24263,-0.284837 1.59298,-0.865058 2.73231,-1.582424 3.52353,-2.07825 l -0.0422,-0.137144 -2.21539,0.717366 v -5.854969 c 0.24264,-0.04219 0.32704,-0.137144 0.34813,-0.263738 l -1.33978,-0.126594 v 6.551236 c -0.46418,0.137144 -0.83342,0.242639 -1.0866,0.305936 z m 5.38025,-6.941568 c -0.0106,4.114303 0.22153,7.057613 -4.3464,9.167511 l 0.10549,0.179342 c 1.94111,-0.664619 3.16485,-1.47693 3.93497,-2.447483 0.48527,0.685717 1.03385,1.529677 1.26594,2.225943 0.9811,0.664618 1.64572,-1.160445 -1.05496,-2.510779 1.13935,-1.656272 1.09715,-3.723972 1.1499,-6.182005 0.25319,-0.04219 0.34813,-0.137143 0.36923,-0.295385 z m -5.91828,-0.432529 c -0.46417,2.014954 -1.31868,4.114303 -2.131,5.43299 l 0.13715,0.09495 c 0.41142,-0.379782 0.80176,-0.822861 1.17099,-1.318688 v 5.580683 h 0.17934 c 0.39034,0 0.79121,-0.22154 0.80176,-0.305935 v -6.234751 c 0.1899,-0.03165 0.28485,-0.09495 0.3165,-0.200441 l -0.45364,-0.168792 c 0.39034,-0.685718 0.72792,-1.434731 1.0233,-2.225943 0.24264,0.01055 0.36923,-0.0844 0.41143,-0.21099 z m 2.02551,10.876529 -0.50638,0.696267 h -0.46418 v -0.675168 c 0.211,-0.0211 0.28484,-0.105495 0.30594,-0.22154 l -1.32924,-0.126594 v 1.023302 h -1.99385 l 0.0844,0.305935 h 1.90946 v 0.801762 l -0.43253,-0.179342 v 3.76617 h 0.13714 c 0.40089,0 0.82286,-0.21099 0.82286,-0.305936 v -0.327034 h 1.78287 v 0.896707 h -2.35254 l -1.11824,-0.453628 v 0.453628 h -0.78067 l 0.095,0.305936 h 0.68572 v 3.502431 h 0.16879 c 0.50637,0 0.81231,-0.232088 0.81231,-0.316484 v -3.185947 h 2.48968 v 1.202642 c -0.9389,0.05275 -1.71957,0.09495 -2.18375,0.105495 l 0.43253,1.097148 c 0.10549,-0.0211 0.22154,-0.09495 0.28484,-0.23209 1.62462,-0.348132 2.84836,-0.632969 3.76617,-0.865058 0.11605,0.232089 0.21099,0.485277 0.23208,0.717366 0.80177,0.632969 1.56134,-1.0655 -0.8334,-1.761766 l -0.11605,0.0844 c 0.20045,0.189891 0.41144,0.443079 0.58023,0.717366 l -1.2132,0.0844 v -1.149894 h 2.67958 v 2.236492 c 0,0.147693 -0.0527,0.21099 -0.23209,0.21099 -0.25319,0 -1.31869,-0.07384 -1.31869,-0.07384 v 0.147692 c 0.51692,0.07384 0.75956,0.179342 0.91781,0.316485 0.15824,0.126594 0.21099,0.358684 0.24264,0.63297 1.20264,-0.105495 1.37143,-0.495826 1.37143,-1.128795 v -2.173197 c 0.21099,-0.04219 0.37978,-0.137143 0.44308,-0.210989 l -1.07605,-0.801762 -0.45363,0.538024 h -2.57408 v -0.896707 h 1.80397 v 0.474728 h 0.16879 c 0.33758,0 0.80176,-0.232089 0.81232,-0.316485 v -2.405285 c 0.20043,-0.04219 0.35868,-0.126594 0.42197,-0.20044 l -1.0233,-0.780663 -0.0211,0.0211 v -0.548574 h 2.01495 c 0.1477,0 0.25319,-0.05275 0.27429,-0.168792 -0.34813,-0.348133 -0.93891,-0.83341 -0.93891,-0.83341 l -0.51692,0.696267 h -0.83341 v -0.685717 c 0.21099,-0.0211 0.27428,-0.105495 0.30593,-0.22154 l -1.32923,-0.126594 v 1.033851 h -1.29759 l 0.0844,0.305935 h 1.21319 v 0.82286 h 0.18989 c 0.26374,0 0.56967,-0.0844 0.72791,-0.158242 l -0.35868,0.379782 h -4.35694 l -0.34814,-0.137143 c 0.35869,-0.0211 0.77012,-0.168792 0.77012,-0.242639 v -0.664618 h 1.64573 c 0.13714,0 0.24263,-0.05275 0.27428,-0.168792 -0.34814,-0.348133 -0.94946,-0.83341 -0.94946,-0.83341 z m 0.31648,2.352537 v 0.886158 h -1.78286 v -0.886158 z m 0.94945,0 h 1.80397 v 0.886158 h -1.80397 z m -0.94945,2.1099 h -1.78286 v -0.917806 h 1.78286 z m 0.94945,0 v -0.917806 h 1.80397 v 0.917806 z m -5.35914,11.488386 0.47473,1.18153 c 0.11605,-0.0422 0.21099,-0.14768 0.25319,-0.27427 l 1.0866,-0.56967 v 3.72395 h 0.18988 c 0.35869,0 0.75957,-0.20043 0.75957,-0.30592 v -3.94551 l 1.46638,-0.854505 -0.0422,-0.13714 -1.42419,0.42198 v -2.225939 h 1.27649 c -0.27429,0.569673 -0.58022,1.065495 -0.90726,1.476922 l 0.13715,0.1055 c 0.70681,-0.485277 1.30813,-1.139343 1.80395,-1.951655 h 0.58023 c -0.32704,1.666825 -1.19209,3.396927 -2.42638,4.620657 l 0.1055,0.1266 c 1.64572,-1.12879 2.77451,-2.848352 3.30199,-4.747257 h 0.48527 c -0.30594,2.531872 -1.32924,4.947687 -3.35474,6.677807 l 0.10549,0.11605 c 2.58463,-1.55078 3.81892,-4.008798 4.30421,-6.793857 h 0.33757 c -0.14769,3.333627 -0.42197,5.622867 -0.87561,6.023737 -0.14768,0.12659 -0.24263,0.15824 -0.46417,0.15824 -0.26374,0 -1.07605,-0.0633 -1.60353,-0.11603 l -0.0106,0.16878 c 0.49583,0.0844 0.96,0.23209 1.14989,0.40089 0.1688,0.14768 0.21099,0.40087 0.21099,0.71736 0.64352,0.0106 1.09715,-0.15825 1.47694,-0.54857 0.61186,-0.63297 0.9389,-2.86946 1.07604,-6.646164 0.24264,-0.03165 0.39033,-0.09495 0.46418,-0.189891 l -0.99165,-0.854509 -0.54857,0.590772 h -3.15431 c 0.24264,-0.443079 0.45363,-0.938906 0.63297,-1.46638 0.24264,0 0.36924,-0.0844 0.41143,-0.221539 l -1.38198,-0.400881 c -0.14769,0.865058 -0.41142,1.698469 -0.72792,2.436933 -0.32703,-0.327034 -0.75956,-0.738464 -0.75956,-0.738464 l -0.50637,0.749013 h -0.14769 v -2.014953 c 0.27429,-0.04219 0.35867,-0.147693 0.37978,-0.295386 l -1.32924,-0.137143 v 0.928355 l -1.22374,-0.232088 c -0.0633,1.308137 -0.27429,2.71122 -0.60133,3.713423 l 0.16879,0.0844 c 0.35869,-0.474717 0.65408,-1.076044 0.88616,-1.740662 h 0.77012 v 2.510766 c -0.79121,0.221538 -1.44528,0.400888 -1.81451,0.474728 z m 1.81452,-4.726161 v 1.434731 h -0.66463 c 0.1266,-0.40088 0.24264,-0.82286 0.32704,-1.255389 0.17935,-0.0211 0.28484,-0.0844 0.33759,-0.179342 z m 1.56132,9.557811 -0.10549,0.0739 c 0.50637,0.51692 1.04439,1.33978 1.16044,2.05715 1.0444,0.74901 1.89891,-1.41364 -1.05495,-2.13101 z m -1.32923,7.22641 c -0.26374,0 -1.39254,0.82287 -2.10991,1.2343 l 0.81232,1.19208 c 0.0739,-0.0527 0.12659,-0.13714 0.0844,-0.24263 0.34812,-0.56967 0.8756,-1.31869 1.08659,-1.66682 0.11604,-0.17935 0.23209,-0.211 0.36923,-0.0106 0.89671,1.29759 1.80397,1.73011 3.94551,1.73011 0.98111,0 2.05715,0 2.82726,0 0.0527,-0.47473 0.31649,-0.88616 0.78067,-0.9811 v -0.1266 c -1.16045,0.0633 -2.07825,0.0633 -3.22815,0.0633 -2.14155,0 -3.31253,-0.18989 -4.16704,-1.0444 l -0.0422,-0.0317 c 2.54243,-0.97054 4.75782,-2.57407 6.06596,-4.30419 0.27429,-0.0106 0.39033,-0.0422 0.47473,-0.14769 l -0.99165,-0.9178 -0.66462,0.58022 h -6.76223 l 0.095,0.30593 h 6.60399 c -1.09715,1.60352 -3.14376,3.29145 -5.11651,4.36749 z m -8.29191,-67.917622 -0.56967,0.696267 h -4.35694 l 0.0844,0.305936 h 5.61233 c 0.1477,0 0.25319,-0.05275 0.28484,-0.168793 -0.40088,-0.358683 -1.05495,-0.83341 -1.05495,-0.83341 z m -3.27035,4.019358 -1.24483,-0.622421 c -0.42198,1.012752 -1.37143,2.352538 -2.43694,3.185948 l 0.095,0.137143 c 1.37144,-0.61187 2.53188,-1.67737 3.18595,-2.574076 0.24263,0.03165 0.34813,-0.0211 0.40087,-0.126594 z m 2.71123,-0.390331 -0.10549,0.09494 c 0.87561,0.654068 1.86726,1.772315 2.17319,2.72177 1.13934,0.696267 1.71957,-1.782865 -2.0677,-2.816715 z m -2.27869,-6.340247 -0.0844,0.0633 c 0.29539,0.305935 0.52747,0.854509 0.50638,1.318687 0.96,0.780663 2.0466,-1.086598 -0.42198,-1.381984 z m 4.35694,4.483535 -0.60132,0.727916 h -7.53234 l 0.0844,0.305935 h 3.98771 v 4.367491 h 0.17934 c 0.50638,0 0.81232,-0.189891 0.81232,-0.242639 v -4.124852 h 3.88221 c 0.14769,0 0.25319,-0.05275 0.28483,-0.168792 -0.42198,-0.369232 -1.09714,-0.865059 -1.09714,-0.865059 z m -7.09981,-3.439135 h -0.15825 c 0.0317,0.611871 -0.36922,1.170994 -0.75956,1.381984 -0.28484,0.158242 -0.47472,0.421979 -0.35868,0.727915 0.13714,0.348133 0.60132,0.390331 0.90726,0.179342 0.33759,-0.22154 0.60132,-0.706817 0.54857,-1.424182 h 6.83607 c -0.0844,0.432529 -0.21099,0.991652 -0.32703,1.360885 l 0.11604,0.07384 c 0.43253,-0.316485 0.99166,-0.854509 1.30814,-1.234291 0.21099,-0.0211 0.32703,-0.04219 0.41143,-0.126594 l -1.0022,-0.949454 -0.56968,0.569672 h -6.80442 c -0.0317,-0.179341 -0.0844,-0.358682 -0.14769,-0.559123 z m 6.46684,10.65499 c -0.10549,1.403082 -0.45363,2.763967 -0.96,3.776719 v -4.325293 c 0.24263,-0.03165 0.31647,-0.126593 0.33758,-0.274287 l -1.31869,-0.137143 v 3.998258 c -0.1266,-0.337584 -0.46417,-0.717366 -1.10769,-1.054949 0.13714,-0.453629 0.25318,-0.949454 0.33758,-1.46638 0.23209,-0.01055 0.34813,-0.116044 0.37978,-0.263737 l -1.39253,-0.22154 c -0.0633,1.751216 -0.43254,3.396937 -1.05495,4.589031 l 0.1477,0.09495 c 0.63297,-0.601321 1.11824,-1.403082 1.46637,-2.394736 0.24263,0.443079 0.45363,0.981103 0.47473,1.434732 0.30594,0.274287 0.61187,0.189891 0.74901,-0.07384 v 1.571875 h -2.33143 l 0.0844,0.295386 h 2.24705 v 2.415835 h -3.0277 l 0.0844,0.305935 h 6.82551 c 0.1477,0 0.25319,-0.05275 0.28484,-0.168792 -0.41143,-0.390331 -1.08659,-0.917806 -1.08659,-0.928355 l -0.60133,0.791212 h -1.49802 v -2.415835 h 2.32089 c 0.14769,0 0.26373,-0.04219 0.28483,-0.158243 -0.39034,-0.379781 -1.05495,-0.917806 -1.05495,-0.917806 l -0.58022,0.780663 h -0.97055 v -1.097147 c 0.56966,-0.485277 1.0233,-1.118247 1.38198,-1.89891 0.33758,0.569673 0.67516,1.308138 0.71737,1.930558 0.8123,0.738465 1.66681,-0.991652 -0.60133,-2.204844 0.1899,-0.443079 0.33759,-0.928356 0.46418,-1.45583 0.23209,-0.01055 0.34813,-0.116045 0.39033,-0.242639 z m -7.96487,4.261996 0.50637,1.149895 c 0.11605,-0.04219 0.20045,-0.168792 0.22154,-0.295386 l 0.75957,-0.506376 v 2.837814 c 0,0.137144 -0.0422,0.189891 -0.211,0.189891 -0.18989,0 -1.05494,-0.0633 -1.05494,-0.0633 v 0.158242 c 0.42197,0.0633 0.62242,0.168793 0.75956,0.327035 0.1266,0.147693 0.17935,0.379782 0.20044,0.685717 1.10771,-0.116044 1.2343,-0.516925 1.2343,-1.223741 v -3.56573 l 1.21319,-0.907256 -0.0527,-0.116044 -1.16044,0.453628 v -1.67737 h 1.18154 c 0.14769,0 0.24264,-0.05275 0.26373,-0.168792 -0.28483,-0.358683 -0.82286,-0.896707 -0.82286,-0.896707 l -0.47472,0.759563 h -0.14769 v -2.046601 c 0.26373,-0.03165 0.36923,-0.137144 0.39033,-0.284836 l -1.31869,-0.137144 v 2.468581 h -1.32924 l 0.0844,0.305936 h 1.24484 v 2.036052 c -0.65406,0.242639 -1.1921,0.43253 -1.48748,0.516926 z m 6.02376,12.754338 -0.0527,0.158243 c 1.32923,0.569673 2.19429,1.308138 2.63737,1.88836 0.9178,0.875608 2.65847,-1.287039 -2.58463,-2.046603 z m -2.61627,-0.232088 c -0.60132,0.770113 -1.92001,1.803964 -3.16485,2.384185 l 0.0633,0.137145 c 1.49802,-0.358684 2.99606,-1.054951 3.85056,-1.709019 0.31648,0.05275 0.48528,0 0.55912,-0.116044 z m 3.17539,-7.258052 v 1.635172 h -2.97495 v -1.202643 c 0.26374,-0.05275 0.35869,-0.158242 0.37978,-0.305935 l -1.39254,-0.126594 v 1.635172 h -2.17319 l 0.0844,0.305935 h 2.0888 v 4.80002 h -2.41583 l 0.0949,0.305935 h 9.44179 c 0.1477,0 0.26374,-0.05275 0.29539,-0.168792 -0.44307,-0.390331 -1.17099,-0.938905 -1.17099,-0.938905 l -0.63298,0.801762 h -0.60132 v -4.80002 h 1.88836 c 0.1477,0 0.26374,-0.05275 0.28484,-0.168792 -0.41143,-0.369233 -1.08659,-0.875608 -1.08659,-0.875608 l -0.59078,0.738465 h -0.49583 v -1.202643 c 0.27429,-0.04219 0.36924,-0.147693 0.39034,-0.305935 z m -2.97495,6.741127 v -1.424182 h 2.97495 v 1.424182 z m 0,-4.80002 h 2.97495 v 1.360884 h -2.97495 z m 0,1.66682 h 2.97495 v 1.403083 h -2.97495 z m 0.73846,12.638295 -1.09714,-0.284837 c -0.095,0.738465 -0.24265,1.592974 -0.36924,2.152097 l 0.17935,0.07384 c 0.32703,-0.453628 0.66461,-1.128795 0.9178,-1.719567 0.22154,0 0.33758,-0.105495 0.36923,-0.221539 z m -3.88221,-0.253188 -0.1477,0.04219 c 0.23209,0.569673 0.47473,1.413633 0.45364,2.067702 0.62241,0.664618 1.40308,-0.759564 -0.30594,-2.109899 z m 2.09935,-4.979362 c 0.27429,-0.0211 0.37978,-0.09494 0.41143,-0.221539 l -1.36089,-0.295386 c -0.23208,1.012751 -0.8756,2.626824 -1.55077,3.576278 l 0.12659,0.0844 c 0.18989,-0.147694 0.36924,-0.316485 0.54858,-0.495827 l 0.0422,0.147693 h 0.98111 v 1.445281 h -1.56133 l 0.0844,0.305935 h 1.47693 v 3.249245 c -0.68572,0.137143 -1.2554,0.232088 -1.59297,0.284836 l 0.55911,1.0655 c 0.0949,-0.03165 0.20045,-0.116045 0.24265,-0.253188 1.52967,-0.622421 2.61626,-1.107697 3.37583,-1.466381 l -0.0316,-0.147692 -1.67737,0.348133 v -3.080453 h 1.32925 c 0.14768,0 0.25317,-0.05275 0.27428,-0.168792 -0.32704,-0.327034 -0.88616,-0.780662 -0.88616,-0.780662 l -0.48528,0.643519 h -0.23209 v -1.445281 h 1.02331 c 0.13714,0 0.24264,-0.05275 0.27429,-0.168791 -0.33759,-0.316485 -0.89672,-0.759564 -0.89672,-0.759564 l -0.48527,0.62242 h -1.65627 c 0.66462,-0.706816 1.23428,-1.571875 1.59297,-2.320889 0.47473,0.601321 0.77011,1.297588 0.84397,1.782864 0.64351,0.696267 1.95165,-0.749013 -0.77012,-1.951656 z m 2.86946,5.359144 v -0.232089 h 0.10549 c -0.0422,1.561325 -0.18989,2.911661 -2.21539,3.998258 l 0.11605,0.158243 c 2.65847,-0.970554 2.97496,-2.405285 3.08045,-4.156501 h 0.54858 v 3.080452 c 0,0.580222 0.11603,0.780663 0.85451,0.780663 h 0.65406 c 1.14989,0 1.45583,-0.168792 1.45583,-0.506376 0,-0.168792 -0.0527,-0.274287 -0.28484,-0.379781 l -0.0422,-1.192094 h -0.11605 c -0.12659,0.506376 -0.26373,1.012752 -0.33759,1.149895 -0.0422,0.09494 -0.0844,0.116045 -0.16879,0.116045 -0.0844,0 -0.24263,0 -0.43252,0 h -0.46418 c -0.20044,0 -0.23209,-0.03165 -0.23209,-0.168792 v -2.880012 h 0.20044 v 0.369232 h 0.15824 c 0.29539,0 0.75957,-0.189891 0.77011,-0.263737 v -2.394736 c 0.15825,-0.03165 0.28484,-0.105495 0.33759,-0.168792 l -0.1055,-0.0844 c 0.82286,0.126594 1.0022,-1.740667 -2.01495,-2.858913 l -0.11605,0.0844 c 0.65408,0.654068 1.45584,1.666819 1.78287,2.510779 l -0.46418,-0.348133 -0.43253,0.464178 h -2.58462 l -0.58023,-0.253188 c 0.62243,-0.611871 1.13935,-1.308138 1.45583,-1.88836 0.25319,0.01055 0.33759,-0.05275 0.39033,-0.168792 L 115.368,73.745101 c -0.27429,0.949455 -0.89671,2.331439 -1.63517,3.228145 l 0.1055,0.116045 c 0.21098,-0.137143 0.41142,-0.295385 0.60131,-0.453628 v 3.101552 h 0.1266 c 0.37977,0 0.77011,-0.189891 0.77011,-0.274287 z m 2.72177,-2.626825 v 2.0888 h -2.72177 v -2.0888 z m -5.11651,8.756081 c -0.12659,0.400881 -0.32703,0.938905 -0.51692,1.318687 h -0.62242 l -0.52748,-0.21099 c 0.27429,-0.327035 0.52748,-0.706816 0.75956,-1.107697 z m -1.33978,-1.46638 c -0.31648,1.371435 -0.92835,2.690121 -1.55077,3.523532 l 0.13714,0.105495 c 0.21099,-0.158243 0.42198,-0.337585 0.62242,-0.538025 v 1.825063 c 0,1.571874 -0.0317,3.344189 -0.75956,4.768371 l 0.13714,0.105495 c 0.8967,-0.886158 1.24484,-2.046601 1.38198,-3.143749 h 2.16265 v 1.930557 c 0,0.158243 -0.0527,0.22154 -0.23209,0.22154 -0.21099,0 -1.1921,-0.07384 -1.1921,-0.07384 v 0.158242 c 0.45363,0.0633 0.68572,0.168792 0.84397,0.305935 0.13714,0.126594 0.18989,0.337584 0.22154,0.611871 1.06549,-0.105496 1.20264,-0.485277 1.20264,-1.118247 v -5.422443 c 0.22154,-0.05275 0.39033,-0.137143 0.46417,-0.232089 l -1.0022,-0.759563 -0.42198,0.516925 h -0.90725 c 0.42197,-0.348134 0.8756,-0.875608 1.18154,-1.213192 0.20043,-0.01055 0.32703,-0.03165 0.41143,-0.105495 l -0.88616,-0.801762 -0.49583,0.495827 h -0.71736 l 0.25319,-0.548574 c 0.23209,0.01055 0.35868,-0.09494 0.40087,-0.221539 z m 0.0527,3.091002 h 0.65406 v 1.434731 h -0.65406 z m 0,1.740667 h 0.65406 v 1.508578 h -0.70681 c 0.0422,-0.506376 0.0527,-0.991653 0.0527,-1.424182 z m 2.07825,-1.740667 v 1.434731 h -0.69627 v -1.434731 z m 0,1.740667 v 1.508578 h -0.69627 v -1.508578 z m 0.96001,-3.97716 0.0949,0.295387 h 1.42418 c -0.1266,1.170993 -0.54858,2.152097 -1.58242,2.890561 l 0.0633,0.137143 c 1.48748,-0.590771 2.28923,-1.582424 2.58462,-3.027704 h 1.25539 c -0.0527,1.065498 -0.13715,1.603522 -0.27429,1.730116 -0.0633,0.0633 -0.12659,0.07384 -0.27428,0.07384 -0.17935,0 -0.64353,-0.03165 -0.92836,-0.05275 v 0.158243 c 0.30594,0.0633 0.54857,0.158242 0.67517,0.284836 0.12659,0.126594 0.14769,0.358683 0.14769,0.611871 0.41143,0 0.73847,-0.09495 0.99165,-0.263737 0.37978,-0.284837 0.51693,-0.949455 0.56968,-2.415834 0.21098,-0.0211 0.32703,-0.07384 0.40087,-0.158243 l -0.9178,-0.738465 -0.48528,0.474727 z m 0.77011,3.238696 c -0.15825,1.002201 -0.46419,1.983304 -0.82286,2.647922 l 0.14769,0.09495 c 0.31648,-0.274287 0.61187,-0.62242 0.86506,-1.023301 h 1.19208 v 1.47693 h -2.14154 l 0.0844,0.305934 h 2.05714 v 2.225943 h 0.1688 c 0.35868,0 0.78067,-0.20044 0.78067,-0.295385 v -1.930558 h 2.02549 c 0.1477,0 0.24264,-0.05275 0.27429,-0.168791 -0.34813,-0.337584 -0.94945,-0.812312 -0.94945,-0.812312 l -0.50638,0.675169 h -0.84395 v -1.47693 h 1.74066 c 0.13714,0 0.24264,-0.05275 0.27428,-0.168792 -0.34813,-0.327035 -0.90726,-0.770113 -0.90726,-0.770113 l -0.48527,0.632969 h -0.62241 v -1.118246 c 0.24263,-0.03165 0.32703,-0.137143 0.34812,-0.263737 l -1.29759,-0.126594 v 1.508577 h -1.01275 c 0.1477,-0.263737 0.28485,-0.548573 0.40089,-0.843959 0.22154,0.01055 0.33758,-0.0844 0.39032,-0.200441 z m 0.46417,14.009711 -0.0527,0.15824 c 1.32923,0.56967 2.19429,1.30814 2.63737,1.88835 0.9178,0.87562 2.65847,-1.28703 -2.58463,-2.04659 z m -2.61627,-0.2321 c -0.60132,0.77012 -1.92001,1.80397 -3.16485,2.3842 l 0.0633,0.13714 c 1.49802,-0.35868 2.99606,-1.05495 3.85056,-1.70902 0.31648,0.0527 0.48528,0 0.55912,-0.11605 z m 3.17539,-7.258025 v 1.635173 h -2.97495 v -1.202643 c 0.26374,-0.05275 0.35869,-0.158242 0.37978,-0.305936 l -1.39254,-0.126594 v 1.635173 h -2.17319 l 0.0844,0.305935 h 2.0888 v 4.799997 h -2.41583 l 0.0949,0.30594 h 9.44179 c 0.1477,0 0.26374,-0.0527 0.29539,-0.1688 -0.44307,-0.39032 -1.17099,-0.93889 -1.17099,-0.93889 l -0.63298,0.80175 h -0.60132 v -4.799997 h 1.88836 c 0.1477,0 0.26374,-0.05275 0.28484,-0.168792 -0.41143,-0.369232 -1.08659,-0.875608 -1.08659,-0.875608 l -0.59078,0.738465 h -0.49583 v -1.202643 c 0.27429,-0.0422 0.36924,-0.147693 0.39034,-0.305936 z m -2.97495,6.741105 v -1.42417 h 2.97495 v 1.42417 z m 0,-4.799997 h 2.97495 v 1.360885 h -2.97495 z m 0,1.666818 h 2.97495 v 1.403074 h -2.97495 z m 3.1332,8.017589 -1.30814,-0.39032 c -0.24264,1.55077 -0.80176,3.0066 -1.45583,3.97715 l 0.13714,0.0844 c 0.9811,-0.75956 1.74067,-1.95166 2.22595,-3.46023 0.23209,0.0106 0.35868,-0.0844 0.40088,-0.211 z m -5.46465,5.83387 h -0.17933 c 0.0422,0.64353 -0.29538,1.32924 -0.61188,1.60353 -0.25319,0.17934 -0.40087,0.46418 -0.27428,0.73846 0.16879,0.29539 0.61187,0.27429 0.86506,0.0316 0.35868,-0.35868 0.56967,-1.22374 0.20043,-2.37364 z m 1.88837,-0.42197 -0.1266,0.0527 c 0.27429,0.42197 0.54857,1.08659 0.55913,1.63516 0.68571,0.63297 1.49802,-0.83341 -0.43253,-1.68791 z m -1.0444,0.21099 -0.1477,0.0422 c 0.1477,0.56968 0.24264,1.40308 0.13715,2.07826 0.63297,0.77011 1.60352,-0.70683 0.0106,-2.12045 z m 0.9178,-2.44749 -0.12659,0.0527 c 0.1688,0.28484 0.33759,0.65407 0.47473,1.0233 l -2.20485,0.15824 c 1.0866,-0.79121 2.29979,-1.97275 2.92222,-2.79561 0.21098,0.0422 0.35868,-0.0211 0.41143,-0.11605 l -1.16045,-0.77011 c -0.15824,0.33759 -0.40089,0.77011 -0.69627,1.21319 l -1.56132,0.0106 c 0.70681,-0.62242 1.47692,-1.56133 1.93056,-2.25759 0.20043,0.0211 0.32703,-0.0633 0.36922,-0.14769 l -1.25538,-0.64353 c -0.22154,0.81232 -0.92836,2.34199 -1.46638,2.91166 -0.095,0.0527 -0.29539,0.10551 -0.29539,0.10551 l 0.46418,1.13934 c 0.095,-0.0422 0.18989,-0.12659 0.26374,-0.24264 0.44307,-0.13714 0.86505,-0.27429 1.23429,-0.40088 -0.53803,0.74901 -1.171,1.48747 -1.68792,1.87781 -0.1055,0.0633 -0.35869,0.11604 -0.35869,0.11604 l 0.43253,1.16045 c 0.0949,-0.0422 0.18989,-0.11605 0.27429,-0.23209 0.96,-0.29539 1.84616,-0.59077 2.46859,-0.82286 0.0633,0.23209 0.11603,0.45363 0.12659,0.66462 0.73846,0.66462 1.55078,-0.91781 -0.55913,-2.00441 z m 4.54684,-3.69232 h -0.74902 l 0.095,0.30593 h 0.88615 c 0.1688,1.35034 0.55913,2.57408 1.24484,3.47079 l -0.60132,-0.49583 -0.49582,0.51693 h -3.36529 l 0.095,0.30593 h 0.94945 c -0.0527,1.55078 -0.26374,3.38639 -2.17319,4.94772 l 0.13714,0.14769 c 2.50023,-1.41363 2.90111,-3.35474 3.03825,-5.09541 h 1.42418 c -0.0633,2.43693 -0.20043,3.62903 -0.45362,3.87167 -0.0844,0.0739 -0.1688,0.10549 -0.33759,0.10549 -0.18989,0 -0.67516,-0.0317 -0.9811,-0.0633 v 0.16878 c 0.31648,0.0633 0.58022,0.1688 0.70682,0.30594 0.13714,0.1266 0.15824,0.35868 0.15824,0.63297 0.45363,0 0.82286,-0.11605 1.10769,-0.37978 0.45363,-0.43253 0.63297,-1.60353 0.70682,-4.50463 0.21099,-0.0317 0.34814,-0.0844 0.42198,-0.17935 l -0.0739,-0.0527 c 0.12659,-0.33757 0.44307,-0.63297 0.79121,-0.72791 l 0.0211,-0.13714 c -0.9811,-0.62242 -1.73011,-1.69847 -2.05714,-2.79561 0.35868,-0.0316 0.66462,-0.10551 0.78065,-0.24265 l -0.93889,-0.64351 z m -16.48886,-61.229244 -0.54857,0.770114 h -0.516922 v -2.120449 c 0.485272,-0.09494 0.928342,-0.189891 1.297572,-0.295386 0.29539,0.105495 0.51693,0.09495 0.62243,0 l -1.09715,-1.002202 c -0.854502,0.495826 -2.521323,1.192093 -3.861106,1.561325 l 0.04219,0.158243 c 0.654069,-0.05275 1.350336,-0.137143 2.014954,-0.242639 v 1.941108 h -2.025501 l 0.08439,0.305934 h 1.645722 c -0.348131,1.508578 -0.970551,3.080454 -1.856711,4.219799 l 0.137143,0.126594 c 0.83341,-0.706817 1.50858,-1.529678 2.014954,-2.468582 v 4.1776 h 0.168792 c 0.485281,0 0.801761,-0.221539 0.812311,-0.295386 v -4.81057 c 0.390322,0.464178 0.812302,1.097148 0.938892,1.614073 0.83341,0.643519 1.61408,-1.002202 -0.938892,-1.867261 v -0.696267 h 1.793402 c 0.15825,0 0.26374,-0.05275 0.28484,-0.168791 -0.36924,-0.369233 -1.01275,-0.907257 -1.01275,-0.907257 z m 3.99825,-0.654068 v 5.580682 h -1.88836 v -5.580682 z m -1.88836,6.804424 v -0.917806 h 1.88836 v 1.097147 h 0.15825 c 0.34813,0 0.82286,-0.20044 0.84396,-0.274286 v -6.519588 c 0.22154,-0.05275 0.40087,-0.137144 0.46417,-0.23209 l -1.07605,-0.83341 -0.50637,0.569673 h -1.71957 l -1.0444,-0.453628 v 7.922671 h 0.17935 c 0.43253,0 0.8123,-0.242639 0.8123,-0.358683 z m -0.36922,9.262456 -0.0527,0.158242 c 1.32924,0.569673 2.1943,1.308138 2.63738,1.88836 0.9178,0.875609 2.65847,-1.287038 -2.58462,-2.046602 z m -2.61628,-0.232089 c -0.601312,0.770113 -1.919998,1.803964 -3.164839,2.384186 l 0.0633,0.137144 c 1.498026,-0.358684 2.996049,-1.05495 3.850549,-1.709018 0.31649,0.05275 0.48528,0 0.55912,-0.116045 z m 3.17539,-7.258052 v 1.635171 h -2.97495 v -1.202642 c 0.26374,-0.05275 0.35868,-0.158243 0.37978,-0.305935 l -1.392524,-0.126594 v 1.635171 h -2.173197 l 0.0844,0.305936 h 2.088797 v 4.80002 h -2.415832 l 0.09494,0.305935 h 9.441776 c 0.1477,0 0.26375,-0.05275 0.29539,-0.168791 -0.44307,-0.390331 -1.17099,-0.938906 -1.17099,-0.938906 l -0.63297,0.801762 h -0.60132 v -4.80002 h 1.88835 c 0.1477,0 0.26375,-0.05275 0.28484,-0.168792 -0.41142,-0.369232 -1.0866,-0.875608 -1.0866,-0.875608 l -0.59077,0.738464 h -0.49582 v -1.202642 c 0.27428,-0.04219 0.36923,-0.147692 0.39033,-0.305935 z m -2.97495,6.741127 v -1.424181 h 2.97495 v 1.424181 z m 0,-4.80002 h 2.97495 v 1.360885 h -2.97495 z m 0,1.66682 h 2.97495 v 1.403083 h -2.97495 z m -2.373626,7.563988 -0.116048,0.07384 c 0.538027,0.706816 1.107697,1.761766 1.202645,2.637374 1.044389,0.886157 1.983289,-1.392533 -1.086597,-2.71122 z m 6.667266,-0.07384 c -0.42197,1.05495 -1.00219,2.257593 -1.44528,2.953858 l 0.12659,0.105496 c 0.77012,-0.559124 1.61407,-1.392533 2.31034,-2.257592 0.2321,0.04219 0.37979,-0.04219 0.43253,-0.158242 z m -3.38639,-0.580222 v 4.114303 h -4.367475 l 0.09495,0.305935 h 2.943303 c -0.095,2.373636 -0.717362,4.040457 -3.090999,5.23255 l 0.05275,0.137143 c 3.069899,-0.917806 3.977151,-2.658473 4.198691,-5.369693 h 1.24483 v 4.135402 c 0,0.738465 0.23209,0.938906 1.22375,0.938906 h 1.08659 c 1.73012,0 2.13101,-0.189891 2.13101,-0.622421 0,-0.21099 -0.0633,-0.327034 -0.35869,-0.443079 l -0.0317,-1.740666 h -0.1266 c -0.17933,0.759563 -0.33757,1.445281 -0.45362,1.66682 -0.0527,0.116044 -0.095,0.147693 -0.2321,0.158243 -0.14768,0.0211 -0.46417,0.0211 -0.8545,0.0211 h -0.9389 c -0.35869,0 -0.41143,-0.05275 -0.41143,-0.242638 V 67.47871 h 3.05934 c 0.1477,0 0.26375,-0.05275 0.28485,-0.168792 -0.43253,-0.390331 -1.1499,-0.928355 -1.1499,-0.928355 l -0.64352,0.791212 h -2.62682 v -3.692324 c 0.27428,-0.04219 0.36922,-0.147693 0.39033,-0.295386 z m -2.057137,13.049725 0.0844,0.305936 h 4.947697 c 0.1477,0 0.25319,-0.05275 0.28484,-0.168793 -0.40089,-0.358682 -1.05495,-0.854509 -1.05495,-0.854509 l -0.58022,0.717366 z m -1.592972,-1.66682 v 8.967071 h 0.168792 c 0.432529,0 0.82286,-0.253188 0.82286,-0.390332 V 74.74731 h 6.403527 v 7.3319 c 0,0.17934 -0.0633,0.263737 -0.28483,0.263737 -0.30593,0 -1.70902,-0.09495 -1.70902,-0.09495 v 0.158243 c 0.63298,0.07384 0.93891,0.20044 1.16044,0.348133 0.17935,0.137143 0.25319,0.358682 0.30594,0.664618 1.33979,-0.126594 1.51913,-0.548573 1.51913,-1.24484 v -7.247503 c 0.22154,-0.04219 0.36923,-0.137144 0.44308,-0.221539 l -1.05496,-0.822861 -0.48527,0.559123 h -6.213643 l -1.076046,-0.453628 z m 2.204847,3.270344 v 3.797818 h 0.14769 c 0.390322,0 0.801742,-0.21099 0.801742,-0.295387 v -0.875607 h 2.00442 v 0.938904 h 0.15824 c 0.32703,0 0.80176,-0.210989 0.81231,-0.295385 v -2.837815 c 0.17934,-0.03165 0.32703,-0.116043 0.37977,-0.189891 l -0.9811,-0.749013 -0.46417,0.506376 h -1.86726 l -0.991642,-0.411431 z m 0.949432,2.320888 v -2.025506 h 2.00442 v 2.025503 z m 2.00442,11.646643 -0.0527,0.158242 c 1.32924,0.569673 2.1943,1.308137 2.63738,1.888359 0.9178,0.875608 2.65847,-1.287038 -2.58462,-2.046601 z m -2.61628,-0.232089 c -0.601312,0.770113 -1.919998,1.803963 -3.164839,2.384186 l 0.0633,0.137143 c 1.498026,-0.358683 2.996049,-1.054949 3.850549,-1.709018 0.31649,0.05275 0.48528,0 0.55912,-0.116044 z m 3.17539,-7.258053 v 1.635172 h -2.97495 v -1.202642 c 0.26374,-0.05275 0.35868,-0.158243 0.37978,-0.305936 l -1.392524,-0.126594 v 1.635172 h -2.173197 l 0.0844,0.305936 h 2.088797 v 4.800019 h -2.415832 l 0.09494,0.305936 h 9.441776 c 0.1477,0 0.26375,-0.05275 0.29539,-0.168792 -0.44307,-0.390332 -1.17099,-0.938905 -1.17099,-0.938905 l -0.63297,0.801761 h -0.60132 v -4.800019 h 1.88835 c 0.1477,0 0.26375,-0.05275 0.28484,-0.168793 -0.41142,-0.369232 -1.0866,-0.875607 -1.0866,-0.875607 l -0.59077,0.738464 h -0.49582 v -1.202642 c 0.27428,-0.04219 0.36923,-0.147694 0.39033,-0.305936 z m -2.97495,6.741127 v -1.424182 h 2.97495 v 1.424182 z m 0,-4.800019 h 2.97495 V 87.4911 h -2.97495 z m 0,1.666819 h 2.97495 v 1.403084 h -2.97495 z m 3.44968,10.760476 -1.19209,-0.14769 v 1.772299 c 0,0.84397 0.16879,1.0233 1.0866,1.0233 h 1.63517 c 0.82286,0 1.09714,-0.21098 1.09714,-0.53802 0,-0.13714 -0.0422,-0.17934 -0.33757,-0.30593 l -0.0211,-0.632965 h -0.13714 c -0.0949,0.358675 -0.17934,0.580215 -0.24264,0.664615 -0.0633,0.0844 -0.15824,0.0844 -0.31648,0.0844 h -1.58243 c -0.29538,0 -0.30593,-0.0211 -0.30593,-0.26374 v -0.611865 h 2.24704 c 0.14769,0 0.24264,-0.0527 0.27429,-0.16879 -0.27429,-0.274277 -0.70682,-0.643517 -0.70682,-0.643517 l -0.39033,0.506377 h -1.42418 v -0.485277 c 0.20044,-0.0317 0.29539,-0.126587 0.31648,-0.253187 z m -0.70681,2.690119 -1.37143,-0.1266 v 1.06548 h -2.552976 l 0.0844,0.30594 h 2.468576 v 1.21319 h -3.755614 l 0.09494,0.30594 h 8.344644 c 0.14769,0 0.25319,-0.0527 0.28484,-0.16879 -0.41143,-0.37978 -1.09715,-0.89671 -1.09715,-0.89671 l -0.60132,0.75956 h -2.25759 v -1.21319 h 2.66902 c 0.14769,0 0.26373,-0.0527 0.28483,-0.16879 -0.40087,-0.36923 -1.0655,-0.87561 -1.0655,-0.87561 l -0.58022,0.73846 h -1.30813 v -0.66461 c 0.25318,-0.0422 0.33757,-0.13714 0.35868,-0.27427 z m -1.32924,-2.426382 -0.39033,0.506367 h -1.05494 v -0.611854 c 0.18989,-0.0317 0.27428,-0.11605 0.29538,-0.24264 l -1.192066,-0.11605 v 1.909449 c 0,0.16879 -0.0422,0.24263 -0.327034,0.42198 l 0.495828,0.89669 c 0.0949,-0.0422 0.20044,-0.14768 0.26373,-0.29537 1.023292,-0.36923 1.972752,-0.75956 2.479122,-0.96 l -0.0211,-0.15824 -1.99384,0.30593 v -0.843955 h 1.8778 c 0.14769,0 0.23209,-0.0527 0.26374,-0.1688 -0.26374,-0.274277 -0.69627,-0.643507 -0.69627,-0.643507 z m 0.78067,-0.8545 h -1.47694 v -0.917806 h 1.47694 z m 0.92835,0 v -0.917806 h 1.33978 v 0.917806 z m -0.92835,-1.223741 H 101.0417 V 96.05729 h 1.47694 z m 2.95385,-1.698469 -0.55913,0.706816 h -2.7534 c 0.53802,-0.179341 0.61186,-1.181543 -1.0444,-1.118246 l -0.095,0.07384 c 0.26374,0.221539 0.55913,0.611871 0.63297,0.981103 l 0.1477,0.0633 h -2.953852 l -1.097145,-0.421979 v 3.270339 c 0,1.930549 -0.05275,4.061529 -0.928355,5.738899 l 0.137143,0.0949 c 1.656268,-1.61408 1.730114,-4.0299 1.730114,-5.833849 v -0.32703 h 6.097595 v 0.28484 h 0.15824 c 0.28485,0 0.75957,-0.15825 0.77012,-0.2321 v -1.149888 c 0.18989,-0.03165 0.32703,-0.116044 0.39033,-0.189891 l -0.97055,-0.717365 -0.44308,0.474727 h -1.24484 v -0.685717 h 2.77452 c 0.15824,0 0.26373,-0.05275 0.28483,-0.168792 -0.39032,-0.358683 -1.03385,-0.84396 -1.03385,-0.84396 z m -5.35914,2.92221 h -1.424175 v -0.917806 h 1.424175 z m 0,-1.223741 H 98.689175 V 96.05729 h 1.424175 z m -2.626814,15.212343 c -0.116047,0 -0.453631,0 -0.453631,0 v 0.22154 c 0.21099,0.0211 0.369232,0.0527 0.516928,0.15824 0.242635,0.15824 0.295385,1.0866 0.116041,2.18375 0.05275,0.35868 0.253191,0.53802 0.464179,0.53802 0.453627,0 0.727915,-0.31648 0.749013,-0.82286 0.04219,-0.90726 -0.327034,-1.33979 -0.348133,-1.85671 0,-0.27429 0.0633,-0.62243 0.147693,-0.96 0.126597,-0.53803 0.833412,-2.89057 1.223742,-4.16706 l -0.17934,-0.0422 c -1.740666,4.1565 -1.740666,4.1565 -1.941107,4.52573 -0.116017,0.22158 -0.147665,0.22158 -0.295355,0.22158 z m -0.559124,-4.1776 -0.0844,0.0739 c 0.379785,0.31649 0.82286,0.86506 0.949454,1.35034 0.938908,0.59077 1.645722,-1.2132 -0.865056,-1.42418 z m 0.685718,-2.45804 -0.0844,0.0844 c 0.40088,0.34814 0.886158,0.9389 1.03385,1.46638 0.960008,0.62242 1.70901,-1.25539 -0.94945,-1.55078 z m 8.13365,4.75782 -0.53802,0.75957 h -0.27429 v -3.77672 h 1.32923 c 0.1477,0 0.25319,-0.0527 0.27429,-0.16879 -0.33758,-0.34813 -0.9178,-0.83341 -0.9178,-0.83341 l -0.50638,0.69626 h -0.17934 v -1.09714 c 0.25318,-0.0422 0.33758,-0.13715 0.35869,-0.27429 l -1.32925,-0.13714 v 1.50857 h -2.32089 v -1.09714 c 0.25319,-0.0317 0.33759,-0.12659 0.36924,-0.27429 l -1.32924,-0.12659 v 1.49802 h -1.002192 l 0.0844,0.30594 h 0.917792 v 3.77672 h -1.46637 l 0.0844,0.30594 h 0.78065 v 2.74287 c 0,0.74901 0.30594,0.8967 1.51913,0.8967 h 1.78286 c 2.55298,0 2.9855,-0.10549 2.9855,-0.55913 0,-0.17933 -0.10549,-0.29538 -0.47471,-0.37978 l -0.0527,-0.0106 h -0.10551 c -0.10549,0.0316 -0.25318,0.0633 -0.34813,0.0739 -0.0844,0.0106 -0.23208,0.0211 -0.39033,0.0317 -0.24264,0.0211 -0.87561,0.0317 -1.54022,0.0317 h -1.78287 c -0.59076,0 -0.65407,-0.0633 -0.65407,-0.25319 v -2.57417 h 1.04441 c -0.0211,0.8545 -0.095,1.64572 -0.88616,2.31034 l 0.13714,0.15824 c 1.32924,-0.59078 1.59297,-1.47694 1.65627,-2.46858 h 0.75956 v 1.42418 c 0,0.48527 0.0739,0.66462 0.70683,0.66462 h 0.47471 c 0.92837,0 1.1921,-0.11605 1.1921,-0.41143 0,-0.1477 -0.0739,-0.22154 -0.30594,-0.29539 l -0.0317,-0.0106 h -0.0949 c -0.0633,0.0106 -0.14769,0.0317 -0.20044,0.0317 -0.0317,0.0106 -0.11605,0.0106 -0.16879,0.0106 -0.0527,0 -0.16879,0 -0.29539,0 h -0.31649 c -0.12659,0 -0.14768,-0.0317 -0.14768,-0.12659 v -1.28709 h 1.89891 c 0.14768,0 0.25319,-0.0527 0.27429,-0.16879 -0.35869,-0.35869 -0.97056,-0.89672 -0.97056,-0.89672 z m -1.78287,-3.01715 v 1.03386 h -2.32089 v -1.03386 z m 0,3.77672 h -2.32089 v -1.03385 h 2.32089 z m 0,-1.33979 h -2.32089 v -1.09715 h 2.32089 z M 87.707181,42.771789 86.346299,42.202116 c -0.421982,1.392533 -1.392533,3.238694 -2.679572,4.399139 l 0.09494,0.116045 c 1.687922,-0.928356 2.880015,-2.50023 3.534084,-3.797818 0.263737,0.0211 0.358682,-0.04219 0.411427,-0.147693 z m 2.574077,1.930557 -0.58022,0.780663 h -4.051006 l 0.08439,0.305935 h 1.371437 c -0.147696,0.474727 -0.411434,1.213192 -0.622423,1.740666 -0.179339,0.05275 -0.358683,0.137145 -0.485277,0.22154 l 0.981103,0.717366 0.474727,-0.527475 h 3.080455 c -0.179344,1.329236 -0.495825,2.373636 -0.822862,2.605726 -0.126594,0.0844 -0.232087,0.105494 -0.443079,0.105494 -0.253186,0 -1.202643,-0.0633 -1.772313,-0.116045 v 0.147694 c 0.506373,0.0844 1.012749,0.242638 1.213192,0.400881 0.189888,0.147692 0.242638,0.390331 0.242638,0.664618 0.601319,0 1.033848,-0.116045 1.381984,-0.358683 0.56967,-0.400881 0.991652,-1.656271 1.20264,-3.301992 0.221539,-0.0211 0.358683,-0.07384 0.432529,-0.158242 l -0.970554,-0.822861 -0.538021,0.527475 h -2.98551 c 0.221543,-0.559124 0.506376,-1.329236 0.68572,-1.846162 h 2.88001 c 0.137143,0 0.253188,-0.05275 0.274289,-0.168792 -0.379785,-0.379782 -1.033853,-0.917806 -1.033853,-0.917806 z m -0.316483,-2.225943 h -1.582424 l 0.09495,0.305935 h 1.740666 c 0.358683,1.603523 1.213192,2.901111 2.542428,3.734521 0.105498,-0.379782 0.443082,-0.749014 0.854509,-0.875607 l 0.01055,-0.126594 c -1.52968,-0.495827 -2.679574,-1.550776 -3.1332,-2.690122 0.369232,-0.0211 0.675165,-0.09494 0.801759,-0.242638 L 90.31291,41.917279 Z m -0.938907,11.699389 -0.126594,0.05275 c 0.369233,0.654069 0.801764,1.603524 0.875611,2.373636 0.907253,0.812312 1.803963,-1.107697 -0.749017,-2.426384 z m -2.753415,5.707278 0.569673,1.170994 c 0.116041,-0.04219 0.210987,-0.158243 0.242635,-0.284837 1.592977,-0.865059 2.732319,-1.582424 3.523531,-2.078251 l -0.04219,-0.137143 -2.215394,0.717365 v -5.854969 c 0.242635,-0.04219 0.327035,-0.137144 0.348131,-0.263737 l -1.339783,-0.126594 v 6.551236 c -0.464181,0.137143 -0.833413,0.242639 -1.086598,0.305936 z m 5.380242,-6.941569 c -0.01055,4.114303 0.22154,7.057612 -4.346394,9.167512 l 0.105494,0.179341 c 1.941107,-0.664618 3.164849,-1.476929 3.934965,-2.447483 0.485274,0.685717 1.03385,1.529677 1.265936,2.225944 0.981106,0.664618 1.645724,-1.160445 -1.054949,-2.51078 1.139345,-1.656271 1.097148,-3.723971 1.149897,-6.182004 0.253185,-0.04219 0.348131,-0.137143 0.36923,-0.295386 z m -5.918269,-0.432528 c -0.464178,2.014953 -1.318688,4.114303 -2.130996,5.432989 l 0.137144,0.09495 c 0.411427,-0.379781 0.801758,-0.82286 1.170991,-1.318686 v 5.580683 h 0.179344 c 0.390332,0 0.791212,-0.22154 0.801759,-0.305936 v -6.234752 c 0.189894,-0.03165 0.284839,-0.09495 0.316488,-0.20044 L 85.755525,55.38899 c 0.390334,-0.685718 0.727915,-1.434732 1.023301,-2.225944 0.242638,0.01055 0.369232,-0.0844 0.41143,-0.21099 z m -2.067699,18.36667 0.611868,1.118246 c 0.116047,-0.03165 0.210993,-0.126594 0.263737,-0.253188 2.036056,-0.654069 3.428587,-1.170994 4.420239,-1.550776 l -0.03165,-0.158242 c -2.215394,0.390331 -4.346392,0.738464 -5.264196,0.84396 z m 3.544628,-2.046602 h -1.645721 v -1.951657 h 1.645721 z m -1.645721,0.82286 v -0.516925 h 1.645721 v 0.569673 H 87.3696 c 0.316483,0 0.780663,-0.21099 0.791212,-0.284836 v -2.426384 c 0.168789,-0.03165 0.305933,-0.116045 0.369229,-0.179342 l -0.960003,-0.727915 -0.453628,0.485277 h -1.508578 l -0.970554,-0.41143 v 3.787268 h 0.126597 c 0.400878,0 0.801759,-0.210989 0.801759,-0.295386 z m 4.800023,-6.424642 -1.403086,-0.158243 c 0,0.706817 0.01055,1.381985 0.03165,2.036054 h -5.274748 l 0.0844,0.305934 h 5.200898 c 0.0844,1.803964 0.305938,3.386388 0.833413,4.641778 -0.85451,1.05495 -1.972759,1.972756 -3.418039,2.626825 l 0.0844,0.137143 c 1.529675,-0.474728 2.732319,-1.202643 3.681772,-2.067701 0.411432,0.706816 0.949454,1.276489 1.67737,1.698468 0.548576,0.316485 1.265941,0.601321 1.582424,0.158242 0.116047,-0.158242 0.07384,-0.379781 -0.284835,-0.833409 l 0.179339,-1.666821 -0.126594,-0.03165 c -0.14769,0.464178 -0.390331,1.023301 -0.54857,1.308138 -0.09495,0.179341 -0.168795,0.189891 -0.358684,0.07384 -0.611873,-0.337584 -1.07605,-0.83341 -1.413631,-1.45583 0.812308,-0.949455 1.371431,-2.014954 1.751215,-3.091003 0.284837,0.01055 0.379779,-0.05275 0.432527,-0.17934 l -1.371434,-0.443079 c -0.253186,0.960003 -0.643517,1.920007 -1.192093,2.806165 -0.337584,-1.023301 -0.474724,-2.28924 -0.516923,-3.681774 h 3.259792 c 0.147692,0 0.253188,-0.05275 0.284836,-0.168791 -0.358686,-0.31648 -0.907257,-0.73846 -1.076051,-0.865054 0.116044,-0.400881 -0.295387,-1.03385 -1.772313,-1.03385 l -0.0844,0.09494 c 0.411434,0.253188 0.928356,0.759564 1.097148,1.202643 0.137146,0.07384 0.274289,0.0844 0.379782,0.0633 l -0.327035,0.400882 h -1.772315 c -0.01055,-0.516926 -0.01055,-1.0444 0,-1.592975 0.27429,-0.03165 0.369232,-0.158242 0.379785,-0.284836 z m 1.772315,11.309058 -0.643522,0.822861 h -3.629027 c 0.179342,-0.390331 0.337584,-0.770113 0.464178,-1.139346 0.28484,0.01055 0.379785,-0.0633 0.421983,-0.189891 L 87.31685,73.576313 c -0.126594,0.569673 -0.316482,1.170994 -0.548571,1.782865 h -2.763968 l 0.09495,0.305935 h 2.552975 c -0.63297,1.571875 -1.603524,3.175398 -2.911658,4.314743 l 0.105492,0.116045 c 0.664618,-0.390331 1.244843,-0.865058 1.751217,-1.381984 v 4.683976 h 0.179343 c 0.453626,0 0.801762,-0.337583 0.812309,-0.453628 v -4.916064 c 0.189891,-0.03165 0.284839,-0.105496 0.327034,-0.189891 l -0.42198,-0.158243 c 0.495827,-0.654069 0.89671,-1.339786 1.223742,-2.014954 h 5.316947 c 0.158243,0 0.263739,-0.05275 0.295387,-0.168791 -0.443082,-0.400881 -1.192093,-0.960005 -1.192093,-0.960005 z m -0.01055,4.251447 -0.601322,0.759564 h -1.033847 v -0.738465 c 0.232088,-0.0211 0.337583,-0.105495 0.369231,-0.263738 l -0.316487,-0.03165 c 0.63297,-0.316485 1.339789,-0.738464 1.761768,-1.086598 0.221537,-0.0211 0.348131,-0.03165 0.43253,-0.116044 l -0.981106,-0.949455 -0.590772,0.569673 H 87.57004 l 0.09494,0.305935 h 3.439133 c -0.263737,0.390331 -0.643516,0.875608 -0.970551,1.24484 l -0.654068,-0.0633 v 1.128796 h -2.468576 l 0.0844,0.295385 h 2.384186 v 2.225943 c 0,0.147694 -0.05275,0.200441 -0.23209,0.200441 -0.232088,0 -1.434734,-0.0844 -1.434734,-0.0844 v 0.158243 c 0.548575,0.07384 0.801765,0.189891 0.981104,0.348133 0.168792,0.158242 0.232089,0.390331 0.263738,0.706816 1.265939,-0.116044 1.434734,-0.527474 1.434734,-1.276489 v -2.278691 h 2.436933 c 0.158239,0 0.263737,-0.05275 0.295382,-0.168791 -0.41143,-0.369233 -1.097146,-0.886158 -1.097146,-0.886158 z m -1.297569,11.762682 v 2.31034 h -4.451887 v -2.31034 z m -5.44354,-0.305934 v 3.723971 h 0.147691 c 0.411433,0 0.843962,-0.232089 0.843962,-0.327034 v -0.474728 h 4.451887 v 0.717365 h 0.168789 c 0.327037,0 0.843962,-0.20044 0.865058,-0.263737 v -2.880012 c 0.22154,-0.05275 0.379785,-0.137143 0.443082,-0.232088 l -1.086597,-0.822861 -0.506379,0.559124 H 86.45181 l -1.065497,-0.443079 z m 4.789469,-1.455831 h -2.72177 c 0.147693,-0.506375 0.316485,-1.192093 0.485276,-1.87781 h 2.236494 z m -5.274748,-2.183745 0.09495,0.305935 h 1.856709 c -0.168792,0.685717 -0.337584,1.360884 -0.474725,1.87781 h -2.658475 l 0.0844,0.305935 h 9.431248 c 0.147691,0 0.253186,-0.05275 0.284835,-0.168792 -0.390329,-0.369232 -1.033851,-0.875608 -1.033851,-0.875608 l -0.56967,0.738465 h -0.717369 v -1.709018 c 0.221543,-0.04219 0.379785,-0.126594 0.443079,-0.221539 l -1.054949,-0.791212 -0.516923,0.538024 h -2.057155 l 0.337586,-1.47693 h 4.230344 c 0.158246,0 0.263738,-0.05275 0.295386,-0.168791 -0.421979,-0.348134 -1.086598,-0.833411 -1.086598,-0.833411 l -0.590772,0.696267 h -6.804421 l 0.09495,0.305935 h 2.753415 l -0.327034,1.47693 z m 4.620679,11.541147 -0.09495,0.105498 c 1.065502,0.675157 2.489684,1.856699 3.059354,2.806159 1.234294,0.52745 1.529676,-1.898902 -2.964408,-2.911657 z m -5.738925,-2.426384 0.0844,0.305935 h 4.747273 c -0.854509,1.87781 -2.837814,3.934948 -4.968814,5.253636 l 0.0844,0.12659 c 1.603523,-0.70681 3.112104,-1.709005 4.325296,-2.879989 v 5.960439 h 0.20044 c 0.36923,0 0.812309,-0.18989 0.833408,-0.25319 v -6.255829 c 0.189888,-0.03165 0.284833,-0.105496 0.327029,-0.200441 l -0.485276,-0.179341 c 0.421979,-0.506375 0.801764,-1.033851 1.107699,-1.571875 h 3.08045 c 0.158242,0 0.274289,-0.05275 0.295385,-0.168791 -0.464177,-0.411431 -1.223741,-0.991654 -1.223741,-0.991654 l -0.685717,0.85451 z m 1.160444,9.557821 c -0.210987,1.44527 -0.696266,2.89056 -1.25539,3.85056 l 0.137143,0.095 c 0.548575,-0.45362 1.033854,-1.05494 1.434734,-1.76175 h 0.559124 v 1.71956 l -0.01055,0.61187 h -2.088795 l 0.0844,0.29539 h 1.993853 c -0.105496,1.62462 -0.548572,3.37583 -2.130996,4.84222 l 0.116042,0.12659 c 1.65627,-0.93891 2.415834,-2.22595 2.753421,-3.51298 0.474724,0.62241 0.991652,1.42418 1.149891,2.09935 0.970554,0.72791 1.730118,-1.1921 -1.076045,-2.40529 0.08439,-0.39033 0.126594,-0.78066 0.158242,-1.14989 h 1.951657 c 0.147691,0 0.253188,-0.0527 0.284834,-0.1688 -0.390329,-0.36922 -1.023301,-0.8756 -1.023301,-0.8756 l -0.569673,0.74901 h -0.62242 l 0.01055,-0.62242 v -1.70901 h 1.656271 c 0.158243,0 0.263737,-0.0422 0.284834,-0.15825 -0.411431,-0.37978 -1.054949,-0.84396 -1.054949,-0.84396 l -0.58022,0.70681 H 85.41797 c 0.210987,-0.40087 0.390331,-0.8334 0.54857,-1.28703 0.23209,0 0.358684,-0.0949 0.400881,-0.23209 z m 4.156501,1.38198 v 8.03871 h 0.158243 c 0.453628,0 0.833409,-0.25319 0.833409,-0.36922 v -0.68572 h 1.930558 v 0.8967 h 0.147693 c 0.369235,0 0.84396,-0.24263 0.854509,-0.32703 v -7.07872 c 0.210992,-0.0527 0.369235,-0.13714 0.443082,-0.22154 l -1.044403,-0.8334 -0.506373,0.58022 h -1.782865 l -1.033853,-0.46417 z m 2.92221,6.67783 h -1.930558 v -6.38244 h 1.930558 z m -15.022478,-71.451703 -0.116044,0.0633 c 0.337581,0.443079 0.654066,1.139345 0.664615,1.730117 0.84396,0.759564 1.814513,-1.023301 -0.548571,-1.793414 z m -5.306395,0.179342 -0.09495,0.0633 c 0.327035,0.348133 0.68572,0.949454 0.780663,1.44528 0.938904,0.64352 1.761765,-1.170994 -0.685714,-1.508577 z m 2.299787,1.255389 -0.495827,0.64352 h -3.017155 l 0.0844,0.305935 h 4.061554 c 0.147694,0 0.253186,-0.05275 0.284835,-0.168792 -0.348133,-0.327034 -0.917806,-0.780663 -0.917807,-0.780663 z m -0.390329,2.774517 -0.46418,0.590773 h -2.204842 l 0.0844,0.305934 h 3.175395 c 0.147693,0 0.242639,-0.05275 0.274287,-0.168791 -0.327035,-0.316485 -0.865056,-0.727916 -0.865056,-0.727916 z m 0,-1.392533 -0.46418,0.601321 h -2.204842 l 0.0844,0.305936 h 3.175395 c 0.147693,0 0.242639,-0.05275 0.274287,-0.168793 -0.327035,-0.316484 -0.865056,-0.738464 -0.865056,-0.738464 z m 5.686178,-1.318687 -0.506379,0.685717 h -2.637369 l -0.158243,-0.0633 c 0.242638,-0.495826 0.443079,-0.981103 0.590771,-1.403082 0.263738,0 0.358684,-0.07384 0.400882,-0.189891 l -1.424182,-0.42198 c -0.189891,1.244841 -0.685718,3.1332 -1.403083,4.399139 l 0.116044,0.105496 c 0.295387,-0.284837 0.569673,-0.611872 0.822861,-0.960005 v 6.224202 h 0.158242 c 0.453629,0 0.759564,-0.221539 0.759564,-0.295385 v -0.527475 h 4.103756 c 0.147691,0 0.253185,-0.05275 0.284834,-0.168792 -0.369233,-0.358683 -0.970554,-0.84396 -0.970554,-0.84396 l -0.538024,0.706816 H 78.18101 v -1.951656 h 1.624622 c 0.147693,0 0.253188,-0.05275 0.27429,-0.168793 -0.337584,-0.348133 -0.928356,-0.833409 -0.928356,-0.833409 l -0.506378,0.696266 H 78.18101 v -1.846161 h 1.624622 c 0.147693,0 0.253188,-0.05275 0.27429,-0.168792 -0.337584,-0.337584 -0.928356,-0.83341 -0.928356,-0.83341 l -0.506378,0.706816 H 78.18101 v -1.856711 h 1.782864 c 0.137144,0 0.242642,-0.05275 0.27429,-0.168792 -0.348136,-0.348134 -0.949454,-0.822861 -0.949454,-0.822861 z m -3.280896,7.247503 v -1.951656 h 1.297588 v 1.951656 z m 0,-2.257592 v -1.846161 h 1.297588 v 1.846161 z m 0,-2.141547 v -1.856711 h 1.297588 v 1.856711 z m -2.700668,4.230347 h -1.339784 v -2.07825 h 1.339788 z m -1.339788,0.917806 v -0.61187 h 1.339788 v 0.559123 h 0.147693 c 0.305932,0 0.738462,-0.21099 0.749011,-0.284837 v -2.510779 c 0.200441,-0.04219 0.348133,-0.116045 0.41143,-0.20044 l -0.96,-0.738466 -0.453631,0.485278 h -1.181537 l -0.938905,-0.390332 v 3.987709 h 0.126591 c 0.379782,0 0.759564,-0.20044 0.759564,-0.295386 z m 1.888359,1.139346 -0.105492,0.07384 c 0.506373,0.516926 1.044397,1.339787 1.160442,2.057152 1.0444,0.749014 1.898909,-1.413632 -1.05495,-2.130998 z m -1.329236,7.226404 c -0.263738,0 -1.392533,0.82286 -2.109899,1.23429 l 0.812313,1.192094 c 0.07384,-0.05275 0.126592,-0.137143 0.0844,-0.242639 0.34813,-0.569673 0.875605,-1.318686 1.086597,-1.66682 0.116045,-0.179341 0.232089,-0.21099 0.36923,-0.01055 0.896707,1.297588 1.803964,1.730118 3.945511,1.730118 0.981103,0 2.057152,0 2.827265,0 0.05275,-0.474727 0.316485,-0.886158 0.780663,-0.981103 v -0.126594 c -1.160445,0.0633 -2.078251,0.0633 -3.228146,0.0633 -2.141548,0 -3.312541,-0.189891 -4.167048,-1.0444 l -0.0422,-0.03165 c 2.542428,-0.970554 4.757825,-2.574076 6.065962,-4.304194 0.274287,-0.01055 0.390329,-0.04219 0.474724,-0.147693 L 78.4342,54.492275 77.769579,55.072498 h -6.762226 l 0.09495,0.305935 h 6.603986 c -1.097151,1.603523 -3.143752,3.291442 -5.116508,4.367491 z m -0.886155,4.261996 0.09494,0.305936 h 5.854969 c -0.453628,0.527474 -1.149892,1.22374 -1.793412,1.719567 l -0.886159,-0.0844 v 1.803963 h -4.346392 l 0.09495,0.305936 h 4.251446 v 3.375838 c 0,0.179341 -0.0633,0.242638 -0.284835,0.242638 -0.305937,0 -1.92001,-0.105494 -1.92001,-0.105494 v 0.158242 c 0.696267,0.09495 1.033851,0.210989 1.265939,0.379782 0.22154,0.168792 0.305938,0.40088 0.358686,0.738464 1.445278,-0.126594 1.635169,-0.590772 1.635169,-1.339785 v -3.449684 h 4.019361 c 0.14769,0 0.263737,-0.05275 0.295385,-0.168793 -0.47473,-0.41143 -1.234294,-0.991652 -1.234294,-0.991652 l -0.675167,0.854509 h -2.40528 v -1.381984 c 0.242641,-0.0422 0.348133,-0.126594 0.369233,-0.284836 l -0.179339,-0.0211 c 1.012748,-0.443078 2.067698,-1.076048 2.816712,-1.582424 0.232089,-0.0211 0.358683,-0.0422 0.443082,-0.137143 l -1.054952,-0.938905 -0.64352,0.601321 z m 3.354736,13.587749 h -2.130991 v -1.329236 h 2.130995 z m 0.960005,0 v -1.329236 h 2.141547 v 1.329236 z M 75.353746,75.960495 H 73.001208 L 72.726921,75.855 c 0.379782,-0.284836 0.727918,-0.580222 1.0444,-0.886157 h 2.447483 c -0.242636,0.316485 -0.559124,0.706816 -0.865058,0.991652 z m 3.650125,2.880012 -0.780663,-0.601321 h 0.03165 c 0.337584,0 0.822861,-0.210989 0.833413,-0.284837 v -1.529676 c 0.200441,-0.04219 0.348131,-0.126594 0.421977,-0.21099 l -1.033851,-0.759564 -0.485276,0.506376 h -2.268142 c 0.590772,-0.253188 1.192097,-0.601321 1.624625,-0.886158 0.210987,-0.01055 0.337581,-0.03165 0.421978,-0.116043 l -0.938906,-0.833411 -0.527474,0.538024 h -2.225944 c 0.21099,-0.210989 0.390332,-0.41143 0.548576,-0.61187 0.316483,-0.01055 0.443079,-0.07384 0.474726,-0.189891 L 73.655282,73.56576 c -0.559127,1.054949 -1.782866,2.51078 -3.101552,3.386388 l 0.09495,0.116044 c 0.42198,-0.179341 0.843961,-0.40088 1.23429,-0.63297 v 1.972756 h 0.179342 c 0.495827,0 0.801764,-0.232089 0.801764,-0.305935 v -0.20044 h 1.550773 c -0.886157,0.727915 -2.183745,1.392533 -3.586828,1.814512 l 0.07385,0.168792 c 1.519125,-0.274286 2.943306,-0.727915 4.040454,-1.350335 l 0.116044,0.179341 c -0.938904,0.970554 -2.65847,1.962206 -4.219798,2.468582 l 0.0633,0.158242 c 1.603521,-0.327034 3.354737,-1.002201 4.525731,-1.740666 l 0.07385,0.305935 c -1.054949,1.202643 -3.006608,2.278691 -4.863317,2.785067 l 0.0633,0.179342 c 1.782865,-0.295387 3.618474,-0.981103 4.926611,-1.814514 -0.0211,0.559123 -0.147692,1.023302 -0.348134,1.234291 -0.07384,0.07384 -0.168791,0.09494 -0.295385,0.09494 -0.253188,0 -1.012752,-0.04219 -1.434731,-0.07384 l 0.01055,0.147693 c 0.390334,0.0844 0.717368,0.20044 0.854509,0.316485 0.126597,0.126594 0.210992,0.327034 0.210992,0.62242 0.675169,0 1.118245,-0.105495 1.381982,-0.369232 0.590772,-0.580223 0.770113,-1.972756 0.189891,-3.270344 l 0.485277,-0.147692 c 0.474727,1.582424 1.403085,2.584625 2.711219,3.270343 0.126597,-0.464178 0.411431,-0.759564 0.791213,-0.84396 l 0.01055,-0.116044 c -1.371435,-0.390332 -2.66902,-1.139345 -3.301993,-2.373636 0.64352,-0.21099 1.26594,-0.453629 1.709018,-0.664618 0.22154,0.0844 0.316485,0.04219 0.400882,-0.0422 z m -3.143748,-0.938904 h 2.236491 V 78.14424 L 77.98057,78.04929 c -0.41143,0.41143 -1.192093,1.002202 -1.898909,1.46638 -0.21099,-0.41143 -0.495827,-0.791212 -0.875609,-1.139345 0.232089,-0.147693 0.453628,-0.305936 0.654071,-0.474727 z m -2.827267,7.901571 -0.105492,0.05275 c 0.284834,0.43253 0.559123,1.118247 0.56967,1.698469 0.886158,0.770113 1.898909,-1.012751 -0.464178,-1.751216 z m 5.844424,-1.128796 -0.622424,0.791212 h -2.605722 c 0.580219,-0.18989 0.643519,-1.360884 -1.287039,-1.403083 l -0.0844,0.07384 c 0.358681,0.274286 0.738462,0.791212 0.833408,1.24484 0.0633,0.0422 0.126597,0.0633 0.179342,0.0844 h -4.37804 l 0.09494,0.305935 h 5.812774 c -0.158245,0.590772 -0.411433,1.434732 -0.664618,2.025503 h -4.283093 c -0.04219,-0.210989 -0.105496,-0.432528 -0.189893,-0.664618 h -0.158242 c 0.05275,0.664618 -0.305936,1.308138 -0.654069,1.561326 -0.284833,0.168791 -0.464175,0.464177 -0.327034,0.770113 0.158245,0.337584 0.63297,0.358682 0.917808,0.116044 0.305934,-0.242638 0.527475,-0.759563 0.453626,-1.476929 h 6.952117 c -0.09494,0.390331 -0.232089,0.886157 -0.327035,1.192093 l 0.116045,0.07384 c 0.400883,-0.274287 1.002203,-0.749014 1.318689,-1.065499 0.221538,-0.01055 0.327032,-0.03165 0.411429,-0.105495 l -0.991653,-0.960003 -0.569673,0.559122 h -2.415834 c 0.548573,-0.443079 1.149894,-1.012751 1.498031,-1.45583 0.242635,0.01055 0.35868,-0.07384 0.41143,-0.20044 l -1.403076,-0.369228 h 2.795615 c 0.147691,0 0.263737,-0.05275 0.284834,-0.168791 -0.42198,-0.390331 -1.118243,-0.928356 -1.118243,-0.928356 z m -5.781127,8.186408 v -2.869462 h 1.814514 v 3.977159 h 0.179341 c 0.390332,0 0.822863,-0.20044 0.822863,-0.295386 v -3.681773 h 1.740664 v 1.85671 c 0,0.137144 -0.0422,0.200441 -0.210987,0.200441 -0.200443,0 -1.118247,-0.0633 -1.118247,-0.0633 v 0.147693 c 0.453626,0.07384 0.675168,0.18989 0.812309,0.348133 0.126597,0.158242 0.179342,0.400881 0.20044,0.727915 1.170994,-0.105495 1.318687,-0.538024 1.318687,-1.234291 v -1.803963 c 0.221543,-0.04219 0.379782,-0.126594 0.443079,-0.21099 L 78.012218,89.15791 77.54804,89.695934 h -1.635169 v -0.970553 c 0.253185,-0.03165 0.327032,-0.126594 0.348131,-0.263738 l -1.350335,-0.126594 v 1.360885 h -1.751214 l -1.054949,-0.443079 v 3.924413 h 0.137141 c 0.421981,0 0.854508,-0.22154 0.854508,-0.316485 z m 0.759564,1.856711 -0.105492,0.07384 c 0.506373,0.516925 1.044397,1.339786 1.160442,2.057152 1.0444,0.749014 1.898909,-1.413633 -1.05495,-2.130998 z m -1.329236,7.226383 c -0.263738,0 -1.392533,0.82286 -2.109899,1.23429 l 0.812313,1.19209 c 0.07384,-0.0527 0.126592,-0.13714 0.0844,-0.24263 0.34813,-0.56967 0.875605,-1.31869 1.086597,-1.66683 0.116045,-0.17934 0.232089,-0.21099 0.36923,-0.0106 0.896707,1.29759 1.803964,1.73011 3.945511,1.73011 0.981103,0 2.057152,0 2.827265,0 0.05275,-0.47473 0.316485,-0.88616 0.780663,-0.9811 v -0.1266 c -1.160445,0.0633 -2.078251,0.0633 -3.228146,0.0633 -2.141548,0 -3.312541,-0.18989 -4.167048,-1.0444 l -0.0422,-0.0317 c 2.542428,-0.97054 4.757825,-2.574055 6.065962,-4.304168 0.274287,-0.01055 0.390329,-0.0422 0.474724,-0.147693 l -0.991649,-0.917806 -0.664621,0.580221 h -6.762226 l 0.09495,0.305936 h 6.603986 c -1.097151,1.603518 -3.143752,3.29143 -5.116508,4.36747 z m 0.09495,3.57627 c -0.253186,1.48748 -0.822861,2.91166 -1.455829,3.85057 l 0.137142,0.095 c 0.61187,-0.45363 1.160444,-1.06551 1.614072,-1.81451 h 1.951652 v 2.09934 h -4.335841 l 0.09494,0.30594 h 2.848363 c -0.116044,2.22594 -0.717365,3.77672 -3.006605,4.88441 l 0.05275,0.1477 c 2.974954,-0.84396 3.903309,-2.46858 4.1143,-5.03211 h 1.371434 v 3.78726 c 0,0.73847 0.21099,0.93891 1.192093,0.93891 h 1.054949 c 1.709018,0 2.09935,-0.20044 2.09935,-0.63297 0,-0.21099 -0.0633,-0.32703 -0.358683,-0.44308 l -0.03165,-1.66682 h -0.126594 c -0.17934,0.73847 -0.337583,1.39253 -0.432528,1.59298 -0.0633,0.11604 -0.105496,0.15824 -0.242639,0.16879 -0.137141,0.0106 -0.443079,0.0106 -0.822861,0.0106 h -0.928354 c -0.337586,0 -0.379782,-0.0527 -0.379782,-0.22153 v -3.53408 h 2.943309 c 0.147691,0 0.253186,-0.0527 0.284835,-0.1688 -0.443077,-0.39033 -1.160445,-0.94945 -1.160445,-0.94945 l -0.632967,0.81231 h -2.552978 v -2.09934 h 3.238695 c 0.14769,0 0.263738,-0.0527 0.295386,-0.1688 -0.443081,-0.3904 -1.139348,-0.89678 -1.139348,-0.89678 l -0.611871,0.75957 h -1.782862 v -1.62462 c 0.274284,-0.0527 0.358681,-0.15824 0.390329,-0.30594 l -1.434725,-0.12663 v 2.05715 h -1.772315 c 0.200441,-0.36924 0.379782,-0.78067 0.538024,-1.21319 0.232092,0 0.358684,-0.0844 0.400881,-0.22154 z"
       id="text2"
       aria-label="" />
  </g>
</svg>
